<svg id="Слой_1" data-name="Слой 1" xmlns="http://www.w3.org/2000/svg" viewBox="0 0 62 54"><defs><style>.cls-1{fill:#27cc3a;}</style></defs><path class="cls-1" d="M12.57,19.14V17a2.26,2.26,0,0,1,.09-.77A17.69,17.69,0,0,1,17.19,6,17.59,17.59,0,0,1,27.51.28c.67-.12,1.36-.19,2-.28h2.15c.6.08,1.21.13,1.8.23A18.08,18.08,0,0,1,48.56,19.86a17.2,17.2,0,0,1-4.41,10.08,17.68,17.68,0,0,1-12.78,6.13,17.15,17.15,0,0,1-9.95-2.52,17.75,17.75,0,0,1-8.6-12.39C12.73,20.51,12.66,19.8,12.57,19.14Zm18,13.69A14.76,14.76,0,1,0,15.85,18.05,14.76,14.76,0,0,0,30.61,32.83Z"/><path class="cls-1" d="M28.11,21l3.66-3.67,5.52-5.5a1.63,1.63,0,1,1,2.57,2h0a3.25,3.25,0,0,1-.35.39l-10,10.05a1.68,1.68,0,0,1-2.35.36,1.54,1.54,0,0,1-.36-.36l-5.11-5.11a1.63,1.63,0,0,1-.24-2.29,1.81,1.81,0,0,1,.24-.24,1.6,1.6,0,0,1,2,0,8.57,8.57,0,0,1,.69.66Z"/><path class="cls-1" d="M9.51,51.25H7.9V44h6.37v7.25h-1.6v-6H9.45Z"/><path class="cls-1" d="M17.49,44v1a2.6,2.6,0,0,1,2.37-1.17,2.94,2.94,0,0,1,2.39,1.08,4.13,4.13,0,0,1,.91,2.8,4.07,4.07,0,0,1-.88,2.75,2.93,2.93,0,0,1-2.34,1.08,2.72,2.72,0,0,1-2.36-1.14V54H16V44.06Zm2.05,1.07a1.82,1.82,0,0,0-1.49.68,2.94,2.94,0,0,0-.52,1.87,2.91,2.91,0,0,0,.53,1.85,1.82,1.82,0,0,0,1.5.67A1.75,1.75,0,0,0,21,49.47a2.92,2.92,0,0,0,.54-1.83A3,3,0,0,0,21,45.77a1.75,1.75,0,0,0-1.46-.69Z"/><path class="cls-1" d="M26.57,51.25h-2V44h1.6v5.28h0L28.86,44h2v7.25h-1.6V46h0Z"/><path class="cls-1" d="M34.22,51.25H32.61V44h1.61v2.83h3.23V44h1.6v7.25h-1.6V48.1H34.22Z"/><path class="cls-1" d="M46.8,51.25H45.2V48.33H43.89l-2.22,2.92H39.78l2.42-3.11A2.12,2.12,0,0,1,41,47.33,2.45,2.45,0,0,1,40.64,46a1.87,1.87,0,0,1,.62-1.49A2.58,2.58,0,0,1,43,44h3.84Zm-1.6-4.09V45.22H43.27c-.72,0-1.07.31-1.07.93a.94.94,0,0,0,1.07,1Z"/><path class="cls-1" d="M54.1,45.27H51.71v6h-1.6v-6H47.72V44H54.1Z"/></svg>