<svg id="Слой_1" data-name="Слой 1" xmlns="http://www.w3.org/2000/svg" viewBox="0 0 63.99 64"><defs><style>.cls-1{fill:#f1c426;}</style></defs><path class="cls-1" d="M55,4h1c.08,0,.16.12.24.16a1.87,1.87,0,0,1,.53,3.08c-.25.27-.53.53-.79.8L52.8,11.16,56.65,15a2,2,0,0,1,.67,1.73c0,.36-.08.71-.16,1.05a1.38,1.38,0,0,0,.29,1.27c2,2.63,4,5.27,5.94,8A3.08,3.08,0,0,1,64,28.66q0,16.12,0,32.23a7.76,7.76,0,0,1-.2,1.8A6.79,6.79,0,0,1,57,68c-6.71,0-13.41,0-20.12,0-2.49,0-5,0-7.49,0a6.82,6.82,0,0,1-6.52-5.59c-.11-.66.07-1.42-.21-2s-1-.89-1.5-1.37c-6-6-11.92-11.94-17.91-17.88C1.71,39.64.32,38.09,0,35.86V34.11a.62.62,0,0,0,.1-.22A6.76,6.76,0,0,1,2,30.13Q13.43,18.72,24.87,7.32a2.48,2.48,0,0,1,1.29-.67c4.75-.71,9.51-1.36,14.27-2.05C41.69,4.42,43,4.19,44.22,4h1.13c.46.37,1,.7,1.39,1.12C47.88,6.22,49,7.36,50.15,8.53c1-1,2-2,3-3C53.72,5,54.36,4.5,55,4Zm-7.5,7.14c-1-1-2-2.05-3.09-3.06a.8.8,0,0,0-.61-.15q-8,1.14-16.07,2.31a1.57,1.57,0,0,0-.85.4q-11,11-22.06,22a3.11,3.11,0,0,0,0,4.7L24,56.58a3.07,3.07,0,0,0,4.56,0q11.1-11.07,22.17-22.18a1.21,1.21,0,0,0,.35-.62q1.19-8.16,2.33-16.32a.77.77,0,0,0-.15-.55c-1-1-2-2.07-3-3l-2.7,2.7c.35.32.75.68,1.13,1.06a1.9,1.9,0,0,1,.13,2.78,1.88,1.88,0,0,1-2.77-.13q-2.53-2.5-5-5a1.88,1.88,0,1,1,2.64-2.65,15.23,15.23,0,0,1,1.05,1.26Zm-21,50.2a3.11,3.11,0,0,0,3.32,2.9H56.68c2.31,0,3.54-1.24,3.54-3.56,0-9.62,0-19.24,0-28.86a6.77,6.77,0,0,0-1.74-5.13,31.07,31.07,0,0,1-2.16-2.84,1.7,1.7,0,0,0-.12.38c-.51,3.5-1,7-1.49,10.5a3.32,3.32,0,0,1-1,2Q42.9,47.57,32.08,58.43C30.52,60,28.86,61.26,26.5,61.33Z" transform="translate(0.02 -3.99)"/><path class="cls-1" d="M23.67,48.38a1.87,1.87,0,0,1-1.77-2.57c.64-2,1.3-3.9,2-5.85q3.38-10.14,6.75-20.29a2,2,0,0,1,1.76-1.53,1.87,1.87,0,0,1,1.85,2.59q-1.55,4.68-3.11,9.35L25.49,46.87A1.88,1.88,0,0,1,23.67,48.38Z" transform="translate(0.02 -3.99)"/><path class="cls-1" d="M33.05,33.26a5.62,5.62,0,1,1,5.58,5.61A5.64,5.64,0,0,1,33.05,33.26Zm5.6,1.86a1.86,1.86,0,0,0,1.88-1.85,1.87,1.87,0,1,0-3.73,0A1.86,1.86,0,0,0,38.65,35.12Z" transform="translate(0.02 -3.99)"/><path class="cls-1" d="M17.47,38.87a5.62,5.62,0,1,1,5.61-5.6A5.6,5.6,0,0,1,17.47,38.87Zm0-3.75a1.87,1.87,0,0,0,1.89-1.85,1.87,1.87,0,1,0-3.74,0A1.86,1.86,0,0,0,17.44,35.12Z" transform="translate(0.02 -3.99)"/></svg>