<svg id="Слой_1" data-name="Слой 1" xmlns="http://www.w3.org/2000/svg" viewBox="0 0 233.06 90.41"><defs><style>.cls-1{fill:#fff;}</style></defs><path class="cls-1" d="M-37.11,61.51h-4V-28.9h4Zm4-.06h-2V-28.9h2Zm6,0h-2V-28.9h2Zm10.08,0h-2V-28.9h2Zm10.08,0h-4V-28.9h4Zm8.09,0h-2V-28.9h2Zm4.05,0h-2V-28.9h2Zm4,0h-2V-28.9h2Zm10.08,0h-4V-28.9h4Zm10.08,0h-4V-28.9h4Zm8.09,0h-4V-28.9h4Zm8.09,0h-4V-28.9h4Zm6,0h-4V-28.9h4Zm12.13,0h-6V-28.9h6Zm4.05,0H65.81V-28.9h2.06Zm6,.06h-4V-28.9h4Zm0,0" transform="translate(159.16 28.9)"/><path class="cls-1" d="M-155.11,61.51h-4V-28.9h4Zm4-.06h-2.05V-28.9h2.05Zm6,0h-2V-28.9h2Zm10.08,0h-2V-28.9h2Zm10.08,0h-4V-28.9h4Zm8.09,0h-2V-28.9h2Zm4,0h-2V-28.9h2Zm4,0h-2V-28.9h2Zm10.08,0h-4V-28.9h4Zm10.08,0h-4V-28.9h4Zm8.09,0h-4V-28.9h4Zm8.09,0h-4V-28.9h4Zm6,0h-4V-28.9h4Zm12.13,0h-6V-28.9h6Zm4,0h-2.06V-28.9h2.06Zm6,.06h-4V-28.9h4Zm0,0" transform="translate(159.16 28.9)"/></svg>