<svg id="Слой_1" data-name="Слой 1" xmlns="http://www.w3.org/2000/svg" viewBox="0 0 63.58 56.94"><defs><style>.cls-1{fill:#f1c426;}</style></defs><path class="cls-1" d="M-7.66,31.06A1.9,1.9,0,0,0-9.52,33a1.86,1.86,0,0,0,1.27,1.74,6.53,6.53,0,0,0,0,5.66l.12.24A6.51,6.51,0,0,0,.51,43.77a6.51,6.51,0,0,0,3.18-8.65l-.17-.34H15.23a6.52,6.52,0,1,0,11.79,0h2.72a5.85,5.85,0,0,0,.18-11.7h0L38.4-8.27a.75.75,0,0,1,.75-.56h7.47a1.89,1.89,0,0,0,1.67-2.05,1.89,1.89,0,0,0-2.06-1.68H39.15a4.5,4.5,0,0,0-4.31,3.32L32.63-1l-44.26.16a3.58,3.58,0,0,0-.8.1h0a3.72,3.72,0,0,0-2.76,4.45h0l4.47,19.58a4.64,4.64,0,0,0,4.49,3.59h36a2.09,2.09,0,0,1,2.1,2.08h0A2.1,2.1,0,0,1,29.78,31h0Zm26.12,6.52a2.8,2.8,0,0,1,2.77-2.8h0a2.8,2.8,0,1,1-2.86,2.73ZM-2.46,40.34a2.81,2.81,0,0,1-2.61-3,2.81,2.81,0,0,1,2.61-2.61h.09a2.8,2.8,0,0,1,2.6,3,2.81,2.81,0,0,1-2.6,2.61Zm-9.2-37.59h7.24l1.08,8.33H-9.7l-2-8.25h0ZM2,23.1.93,14.79H7.52v8.35Zm9.23,0V14.82h6.6l-1,8.32Zm9.26,0,1.07-8.28H28.3l-2,7.63a1,1,0,0,1-1,.74Zm-9.26-12V2.7h8.23l-1.12,8.41Zm-10.81,0L-.66,2.7H7.52v8.37ZM31.67,2.62l-2.33,8.49H22.12l1.12-8.42ZM-6.26,23.14a.88.88,0,0,1-.89-.71l-1.79-7.61h6.07l1.11,8.32Z" transform="translate(15.29 12.57)"/></svg>