<svg id="Слой_1" data-name="Слой 1" xmlns="http://www.w3.org/2000/svg" viewBox="0 0 43.26 43.26"><defs><style>.cls-1{fill:#f1c426;}</style></defs><path class="cls-1" d="M561.85,537.48v23.66a1.47,1.47,0,0,1-1.4.94H520a1.27,1.27,0,0,1-1.38-1.36c0-7.51,0-15,0-22.52a9.29,9.29,0,0,1,.3-2.16,9.56,9.56,0,0,1,2.9-4.76,6.86,6.86,0,0,0,2.21-5.33c0-1.39,0-2.79,0-4.18a.92.92,0,0,0-.34-.84,1,1,0,0,1-.28-.5c-.21-.69.11-1.21.93-1.61h7.35c1.15.58,1.29,1.35.42,2.33a.46.46,0,0,0-.11.3c0,1.83,0,3.66,0,5.49a6.33,6.33,0,0,0,2.07,4.25,6.17,6.17,0,0,0,2-4c.12-1.91.08-3.83.09-5.74a.54.54,0,0,0-.19-.33,1.29,1.29,0,0,1-.48-1.08,1.42,1.42,0,0,1,.94-1.19h7.43a.39.39,0,0,0,.1.08,1.27,1.27,0,0,1,.33,2.22.63.63,0,0,0-.16.43c0,1.42,0,2.84,0,4.26a10.89,10.89,0,0,0,.17,1.89,6.55,6.55,0,0,0,2,3.49,6.47,6.47,0,0,0,2.07-4.34c.08-1.78,0-3.57,0-5.36a.81.81,0,0,0-.27-.47,1.27,1.27,0,0,1,.25-2l.33-.17h7.35a.41.41,0,0,0,.11.07,1.26,1.26,0,0,1,.4,2.2.72.72,0,0,0-.18.47c0,1.54,0,3.09,0,4.64a9.46,9.46,0,0,0,.24,1.83,7.11,7.11,0,0,0,2.25,3.54,8.7,8.7,0,0,1,2.3,3.49C561.5,535.84,561.65,536.67,561.85,537.48Zm-9.44,15.28h5.32a1.46,1.46,0,0,0,1.59-1.57c0-2.65,0-5.29,0-7.94a1.43,1.43,0,0,0-1.53-1.53h-2.2a1.46,1.46,0,0,1-1.06-.43,2.78,2.78,0,0,0-4.15,0,1.49,1.49,0,0,1-1.1.45h-2a1.5,1.5,0,0,0-1.69,1.69V551c0,1.17.56,1.72,1.75,1.72Zm7.1-13.43c-.09-.82-.13-1.73-.31-2.6a6.5,6.5,0,0,0-2.09-3.46,9.45,9.45,0,0,1-3.16-7.54c0-1.27,0-2.54,0-3.8v-.52H551v.46c0,1.41,0,2.82,0,4.23a9.08,9.08,0,0,1-1.83,5.68,18.94,18.94,0,0,1-1.66,1.82,7.1,7.1,0,0,0-2,5.81c.5-.07,1-.16,1.48-.19s1,0,1.49,0a1.16,1.16,0,0,0,.61-.19,5.46,5.46,0,0,1,6.69,0,1.09,1.09,0,0,0,.61.21C557.42,539.26,558.4,539.29,559.51,539.33Zm-27.08-6.2-.14-.16a9.44,9.44,0,0,1-2.83-7.08c0-1.35,0-2.7,0-4,0-.15,0-.3,0-.43h-2.88v.49c0,1.51,0,3,0,4.52a9,9,0,0,1-2,5.68c-.53.64-1.15,1.2-1.69,1.82a7.09,7.09,0,0,0-1.65,5.55,8.44,8.44,0,0,1,2.86-.28,1.41,1.41,0,0,0,.72-.24,5.21,5.21,0,0,1,4.1-1,19.12,19.12,0,0,1,2,.59A9.38,9.38,0,0,1,532.43,533.13Zm1,6.18c1,0,2-.06,3-.12a1.09,1.09,0,0,0,.6-.21,5.22,5.22,0,0,1,4.13-1.05,18.24,18.24,0,0,1,2,.59,9.64,9.64,0,0,1,1.63-5.4l-.26-.27a8.89,8.89,0,0,1-2.65-5.73c-.1-1.74,0-3.49-.07-5.24v-.47h-2.89c0,1.68,0,3.32,0,5a9,9,0,0,1-2,5.62c-.47.6-1,1.12-1.55,1.67A7,7,0,0,0,533.38,539.31ZM530.7,546v-.55s.11-2,.13-3c0-.42,0-.81-.5-.94-.1,0-.17-.14-.25-.22a2.8,2.8,0,0,0-4.14,0,1.46,1.46,0,0,1-1.09.45h-2.07a1.47,1.47,0,0,0-1.64,1.65V551c0,1.22.53,1.76,1.74,1.76,2.48,0,5,0,7.43,0h.51V548.5h-5.43a1.25,1.25,0,0,1-1.28-.84,1.27,1.27,0,0,1,1.31-1.69c1.63,0,3.27,0,4.9,0ZM543,546c0-1.23,0-2.41,0-3.58,0-.4,0-.74-.48-.87-.11,0-.19-.16-.28-.24a2.76,2.76,0,0,0-4.08,0,1.46,1.46,0,0,1-1.09.45h-2c-1.28,0-1.8.65-1.67,2.1a36,36,0,0,1,0,6.73c-.16,1.48.37,2.17,1.68,2.17H543V548.5h-5.26a1.24,1.24,0,1,1,0-2.48H543Zm2.57,13.55h13.66v-4.34c-.93,0-1.83.11-2.74.12-1.79,0-3.59,0-5.38,0a29.36,29.36,0,0,1-5.54-.21Zm-14.78-4.29h-.51c-1.86,0-3.72,0-5.58,0a10.93,10.93,0,0,1-3.51-.24v4.43h9.6Zm2.59,4.29H543v-4.22h-.56c-3-.05-6,.13-9-.12Z" transform="translate(-518.6 -518.81)"/><path class="cls-1" d="M552.44,548.49h-2.62a1.27,1.27,0,0,1-1.35-1.26,1.28,1.28,0,0,1,1.35-1.27h5.24a1.29,1.29,0,0,1,1.37,1.29,1.26,1.26,0,0,1-1.37,1.24Z" transform="translate(-518.6 -518.81)"/></svg>