<svg id="Слой_1" data-name="Слой 1" xmlns="http://www.w3.org/2000/svg" viewBox="0 0 27.4 70.72"><defs><style>.cls-1{fill:#f1c426;}</style></defs><path class="cls-1" d="M531,564.51v10.37h-2.24v-6.74h-2.52v-1.56h.27a2.46,2.46,0,0,0,2.76-2.07Z" transform="translate(-526.19 -504.4)"/><path class="cls-1" d="M536.55,572.57v2.31h-2.34v-2.31Z" transform="translate(-526.19 -504.4)"/><path class="cls-1" d="M544.74,564.6v1.79h-4.26l-.4,2.25a2.6,2.6,0,0,1,1.91-.72,3.19,3.19,0,0,1,2.4.93,3.35,3.35,0,0,1,.91,2.46,3.55,3.55,0,0,1-1.1,2.68,3.86,3.86,0,0,1-2.81,1.06,4.06,4.06,0,0,1-2.66-.84,3.15,3.15,0,0,1-1.12-2.39h2.07a1.74,1.74,0,0,0,3,1,2.08,2.08,0,0,0,.5-1.43,1.94,1.94,0,0,0-.49-1.4,1.76,1.76,0,0,0-1.32-.52,1.79,1.79,0,0,0-1.56.86h-1.88l1-5.7Z" transform="translate(-526.19 -504.4)"/><path class="cls-1" d="M553.6,574.88h-2.09v-6h-2l-.09,2.7c0,.3,0,.53,0,.7a5.63,5.63,0,0,1-.08.69,3.65,3.65,0,0,1-.15.69,3,3,0,0,1-.28.58,1.48,1.48,0,0,1-.43.49,2.32,2.32,0,0,1-.63.29,2.55,2.55,0,0,1-.86.13,3.25,3.25,0,0,1-1.14-.15V573.3a3.15,3.15,0,0,0,.6.07c.6,0,.91-.53.94-1.58l.12-4.55h6.14Z" transform="translate(-526.19 -504.4)"/><path class="cls-1" d="M547.53,560.4a5,5,0,0,1-3.21-1.21l-.21-.16-.07,0a.49.49,0,0,0-.25-.08.48.48,0,0,0-.28.1,5.2,5.2,0,0,1-7.11,0,.43.43,0,0,0-.28-.11.46.46,0,0,0-.29.11,5,5,0,0,1-2.5,1.3,4.66,4.66,0,0,1-1,.1,5.09,5.09,0,0,1-5-5.85c.67-4.81,1.27-9.19,1.82-13.41a9,9,0,0,0-.71-4.56A19,19,0,0,1,527,528a19.46,19.46,0,0,1,6.75-13.92,1.8,1.8,0,0,0,.69-1.5c0-2.09,0-4.21,0-6.27v-2h11.12v2.85c0,1.85,0,3.69,0,5.54a1.48,1.48,0,0,0,.54,1.22,19.6,19.6,0,0,1,5.32,22.3,12.21,12.21,0,0,0-.54,6.81c.59,3.71,1.27,7.93,1.76,12a4.88,4.88,0,0,1-4,5.13A5.31,5.31,0,0,1,547.53,560.4ZM545.06,556a3.54,3.54,0,0,0,.32.79,2.53,2.53,0,0,0,2.23,1.29h0a2.62,2.62,0,0,0,.83-.13,2.52,2.52,0,0,0,1.75-2.76c-.17-1.27-.36-2.54-.55-3.8l-.62-4.12a.42.42,0,0,0-.42-.36H531.26a.42.42,0,0,0-.43.36s-.16,1.18-.21,1.5l-.23,1.73c-.21,1.53-.42,3-.61,4.58a2.57,2.57,0,0,0,1.67,2.65,2.42,2.42,0,0,0,.89.16,2.49,2.49,0,0,0,2.09-1.12,4.26,4.26,0,0,0,.4-.87s0-.08,0-.13h2.62c.35.66,1.27,2.12,2.37,2.12a3.28,3.28,0,0,0,1.47-.4,3,3,0,0,0,1.12-1.57H545Zm-14.79-30.9a.42.42,0,0,0-.39.27l0,.08a.94.94,0,0,0-.06.18c0,.12-.06.24-.08.36a17.22,17.22,0,0,0,1.07,9.69,11.71,11.71,0,0,1,.84,6c-.07.54-.14,1.08-.2,1.63l-.09.74a.42.42,0,0,0,.42.48H548a.39.39,0,0,0,.32-.15.41.41,0,0,0,.11-.33l0-.25c0-.18,0-.33-.07-.49a13.22,13.22,0,0,1,.62-7.62,18.48,18.48,0,0,0,1.22-8.86l0-.23c-.08-.83-.15-1.48-1.16-1.48H530.27ZM539.94,515c-1,0-1.91,0-2.87,0a1.74,1.74,0,0,0-1.07.38,29.62,29.62,0,0,0-2.21,2.08,15.29,15.29,0,0,0-2.85,4.43.41.41,0,0,0,0,.4.42.42,0,0,0,.35.2h17.12a.41.41,0,0,0,.34-.17.44.44,0,0,0,.08-.37l0-.08a1.19,1.19,0,0,0-.07-.23,17.05,17.05,0,0,0-5-6.38,1.59,1.59,0,0,0-.93-.27Zm-2.61-8.18a.42.42,0,0,0-.43.42V512a.43.43,0,0,0,.43.43h5.19A.43.43,0,0,0,543,512v-4.75a.42.42,0,0,0-.43-.42Z" transform="translate(-526.19 -504.4)"/></svg>