<svg id="Слой_1" data-name="Слой 1" xmlns="http://www.w3.org/2000/svg" viewBox="0 0 40.9 40.85"><defs><style>.cls-1{fill:#f1c426;}</style></defs><path class="cls-1" d="M538.19,583.73l-4.35-.86c-1.22-.25-2.46-.48-3.68-.74a2,2,0,0,1-1.64-2.45q1.8-9.09,3.61-18.18.61-3.13,1.25-6.27a2.05,2.05,0,0,1,2.56-1.72L548.51,556a2.1,2.1,0,0,1,1.89,2.77q-1,5.1-2,10.19a1,1,0,0,0,.25,1c.7.82,1.37,1.67,2,2.55a4.43,4.43,0,0,1,.67,3.31c-.32,2.6-.64,5.19-.84,7.79a10.88,10.88,0,0,0,.32,2.88,1.51,1.51,0,0,1-.19,1.32,8.62,8.62,0,0,1-1.62,1.68,8.25,8.25,0,0,1-7.79,1,6.12,6.12,0,0,1-1.35-.79.74.74,0,0,1-.24-1.1,1.22,1.22,0,0,0-.14-1.49A4.89,4.89,0,0,1,538.19,583.73Zm.07-28.26-2.4-.47c-.75-.15-.92,0-1.07.72l-4.68,23.59c-.24,1.2-.21,1.27,1,1.51,1.91.39,3.83.75,5.74,1.12l1.56.31c0-.12.06-.16.07-.2s0-.22,0-.33a8.24,8.24,0,0,0-1-4.92c-.48-.93-1-1.83-1.48-2.78a2,2,0,0,1,1.33-2.77,3.35,3.35,0,0,1,1.51,0,5,5,0,0,1,3.4,2.72c.48.93.94,1.88,1.43,2.81a13.47,13.47,0,0,0,.72,1.15,2.19,2.19,0,0,0,1-1.32c.6-3.23,1.25-6.45,1.89-9.68.56-2.87,1.13-5.73,1.69-8.59.07-.37,0-.69-.4-.78-.94-.22-1.9-.4-2.87-.6-.05.22-.1.4-.13.58a2.21,2.21,0,0,1-2.66,1.84c-1-.17-2-.39-3-.63a2,2,0,0,1-1.64-1.69A9.15,9.15,0,0,1,538.26,555.47Zm7.65,23.29c.26.06.53.12.82.17.52.09.8.4.74.82a.74.74,0,0,1-1,.64,10.26,10.26,0,0,1-1.81-.56,5.13,5.13,0,0,1-2.48-2.65c-.47-.95-.93-1.92-1.47-2.84a3.29,3.29,0,0,0-2.47-1.7,1.1,1.1,0,0,0-.84.31c-.12.11-.05.52.06.74.31.63.67,1.22,1,1.82a10.23,10.23,0,0,1,1.21,7.77,2.54,2.54,0,0,0,.31,2,11.94,11.94,0,0,0,.76,1.1,2.21,2.21,0,0,1,.41,2,.47.47,0,0,0,.32.64,6.66,6.66,0,0,0,4.36.26,5.62,5.62,0,0,0,3.16-1.82,1,1,0,0,0,.2-.89,14.4,14.4,0,0,1-.29-3c.14-2.11.42-4.22.65-6.32.08-.74.19-1.47.27-2.21a3.6,3.6,0,0,0-.9-2.42c-.3-.43-.66-.81-1-1.28-.27,1.37-.53,2.61-.76,3.85a.57.57,0,0,0,.09.45.77.77,0,0,1,.12,1.12C546.93,577.4,546.43,578,545.91,578.76Zm-6-23c0,.15-.06.24-.07.33-.18.81,0,1.07.79,1.23l2.27.46c1,.19,1.31-.09,1.32-1.17Z" transform="translate(-528.48 -550.1)"/><path class="cls-1" d="M569.37,566.67v14.06a2.15,2.15,0,0,1-2.39,2.41H553.22a2,2,0,0,1-.42,0,.74.74,0,0,1,0-1.46,2.44,2.44,0,0,1,.47,0h13.66c.79,0,1-.17,1-.94V552.51c0-.75-.18-.92-.93-.92H551c-.76,0-.93.17-.93.92,0,.42,0,.84,0,1.26a.75.75,0,0,1-.72.8.74.74,0,0,1-.77-.81c0-.48,0-1,0-1.44a2.11,2.11,0,0,1,2.21-2.22H567a2.14,2.14,0,0,1,2.39,2.37Z" transform="translate(-528.48 -550.1)"/><path class="cls-1" d="M559,553.44h6c.73,0,1,.25,1,1q0,5,0,9.93c0,.73-.24,1-1,1H552.87c-.73,0-1-.24-1-1v-9.93c0-.73.24-1,1-1Zm-5.62,10.34h11.16V555H553.38Z" transform="translate(-528.48 -550.1)"/><path class="cls-1" d="M553.73,568.29h-1.07a.74.74,0,1,1,0-1.48h2.18a.74.74,0,0,1,.77.76.73.73,0,0,1-.75.72Z" transform="translate(-528.48 -550.1)"/><path class="cls-1" d="M559,568.29h-1.07a.74.74,0,1,1,0-1.48H560a.74.74,0,0,1,.78.74.74.74,0,0,1-.79.74Z" transform="translate(-528.48 -550.1)"/><path class="cls-1" d="M564.13,568.29h-1a.74.74,0,0,1-.79-.73.73.73,0,0,1,.77-.75h2.14a.75.75,0,0,1,.8.73c0,.44-.32.73-.82.75h-1.07Z" transform="translate(-528.48 -550.1)"/><path class="cls-1" d="M553.75,571.26h-1.07a.74.74,0,1,1,0-1.48h2.14a.73.73,0,0,1,.78.74.74.74,0,0,1-.79.74Z" transform="translate(-528.48 -550.1)"/><path class="cls-1" d="M558.94,571.26h-1.07a.74.74,0,0,1-.77-.76.73.73,0,0,1,.76-.72H560a.74.74,0,1,1,0,1.48Z" transform="translate(-528.48 -550.1)"/><path class="cls-1" d="M564.13,571.26h-1.07a.74.74,0,1,1,0-1.48h2.18a.73.73,0,0,1,.76.72.74.74,0,0,1-.77.76Z" transform="translate(-528.48 -550.1)"/><path class="cls-1" d="M558.93,574.23h-1.07a.74.74,0,1,1,0-1.48h2.18a.73.73,0,0,1,.76.72.75.75,0,0,1-.77.76h-1.11Z" transform="translate(-528.48 -550.1)"/><path class="cls-1" d="M564.15,574.23h-1.07a.74.74,0,1,1,0-1.48h2.19a.74.74,0,1,1,0,1.48Z" transform="translate(-528.48 -550.1)"/><path class="cls-1" d="M559,575.72h1.11a.74.74,0,0,1,.74.74.73.73,0,0,1-.74.74h-2.23a.74.74,0,0,1,0-1.48Z" transform="translate(-528.48 -550.1)"/><path class="cls-1" d="M564.13,577.2h-1.06a.74.74,0,1,1,0-1.48h2.18a.73.73,0,0,1,.76.72.74.74,0,0,1-.77.76Z" transform="translate(-528.48 -550.1)"/><path class="cls-1" d="M559,580.17c-.37,0-.74,0-1.11,0a.74.74,0,1,1,0-1.48q1.1,0,2.19,0a.74.74,0,1,1,0,1.48Z" transform="translate(-528.48 -550.1)"/><path class="cls-1" d="M554.11,574.23h-.75a.74.74,0,0,1-.72-.75.71.71,0,0,1,.7-.72c.51,0,1,0,1.54,0a.71.71,0,0,1,.72.74.74.74,0,0,1-.75.73Z" transform="translate(-528.48 -550.1)"/><path class="cls-1" d="M554.15,575.72h.7a.74.74,0,0,1,.75.73.73.73,0,0,1-.72.75c-.51,0-1,0-1.54,0a.71.71,0,0,1-.7-.72.74.74,0,0,1,.72-.75Z" transform="translate(-528.48 -550.1)"/><path class="cls-1" d="M544.07,567.15c0,.67-.59,1-1.06.78a2,2,0,0,1-.4-.32,5.07,5.07,0,0,0-5.2-1.16l-.26.09a.75.75,0,0,1-1-.4.71.71,0,0,1,.46-1,10.63,10.63,0,0,1,2.48-.46,6.23,6.23,0,0,1,4.62,1.94A2.81,2.81,0,0,1,544.07,567.15Z" transform="translate(-528.48 -550.1)"/><path class="cls-1" d="M542.52,569.78a3,3,0,0,1-.55.6.68.68,0,0,1-.88-.2,2.8,2.8,0,0,0-3.31-.79c-.53.23-1,.1-1.13-.32s0-.81.56-1.05a4.24,4.24,0,0,1,4.9,1.07A6.29,6.29,0,0,1,542.52,569.78Z" transform="translate(-528.48 -550.1)"/><path class="cls-1" d="M558.17,560.19l2.87-2.83.29-.3a.76.76,0,0,1,1.11,0,.74.74,0,0,1-.06,1.11l-.4.39-3,3c-.63.62-.91.61-1.55,0s-1.23-1.22-1.83-1.84c-.4-.4-.43-.81-.11-1.14a.75.75,0,0,1,1.15.08C557.14,559.12,557.64,559.65,558.17,560.19Z" transform="translate(-528.48 -550.1)"/></svg>