<svg id="Слой_1" data-name="Слой 1" xmlns="http://www.w3.org/2000/svg" viewBox="0 0 44.3 40.12"><defs><style>.cls-1{fill:#f1c426;}</style></defs><path class="cls-1" d="M571,574.13v1.21a1.67,1.67,0,0,0-.08.2,4.68,4.68,0,0,1-3.66,3.82,16.58,16.58,0,0,1-2,.36c-.35,0-.41.19-.41.5q0,2.89,0,5.79a5.69,5.69,0,0,1-.14,1.37,4.77,4.77,0,0,1-4.83,3.61h-25c-1.17,0-2.34,0-3.51,0a4.74,4.74,0,0,1-4.71-4.76q0-9.48,0-19a4.19,4.19,0,0,1,1.95-3.75,1.44,1.44,0,0,0,.71-1.85,4.69,4.69,0,0,1,3.77-5.63c2.23-.44,4.47-.81,6.71-1.2l22-3.88a4.74,4.74,0,0,1,5.7,3.86c1,5.17,1.84,10.35,2.76,15.53C570.51,571.62,570.75,572.87,571,574.13ZM529.27,577v9a2.22,2.22,0,0,0,2.53,2.42c9.26-.28,18.53-.51,27.78,0A2.23,2.23,0,0,0,562.2,586v-9Zm2.86-14.45h27.61a6.24,6.24,0,0,1,1.37.12,4.7,4.7,0,0,1,3.74,4.68c0,3.08,0,6.17,0,9.25v.54c.68-.12,1.31-.2,1.92-.35a2.14,2.14,0,0,0,1.57-2.45c-.82-4.73-1.66-9.45-2.49-14.17l-.84-4.77a2.17,2.17,0,0,0-2.61-1.89l-6.64,1.16-22,3.89a2.13,2.13,0,0,0-1.87,2.23C531.91,561.39,532,562,532.13,562.57Zm-2.86,8.55v3.24H562.2v-3.24Zm33-2.65a10.66,10.66,0,0,0,0-1.5,2.2,2.2,0,0,0-2.4-1.79h-28a5.12,5.12,0,0,0-.56,0,2.1,2.1,0,0,0-1.86,1.78,10.41,10.41,0,0,0,0,1.48Z" transform="translate(-526.69 -550.88)"/><path class="cls-1" d="M536.23,585.76h-2.77a1.31,1.31,0,1,1,0-2.6h5.57a1.31,1.31,0,1,1,0,2.6Z" transform="translate(-526.69 -550.88)"/></svg>