<svg id="Слой_1" data-name="Слой 1" xmlns="http://www.w3.org/2000/svg" viewBox="0 0 40.3 40.29"><defs><style>.cls-1{fill:#f1c426;}</style></defs><path class="cls-1" d="M560.53,541.18v7.24a3,3,0,0,1-1.16,1.75c-.36.22-.77.38-1.15.58v.38c-.05,1.43,0,2.86-.05,4.29a5.43,5.43,0,0,1-.12,1.13,4.31,4.31,0,0,1-4.37,3.35h-29.2a4.32,4.32,0,0,1-4.24-4.3q0-10.74,0-21.49a4.3,4.3,0,0,1,3.29-4.15c.24-.06.48-.09.75-.14-.16-.43-.3-.84-.45-1.25a2.76,2.76,0,0,1,1.79-3.85l14.06-5.11h.82l.15.06a2.75,2.75,0,0,1,2.1,1.86c.27.75.56,1.49.8,2.25a.48.48,0,0,0,.55.4c2.34,0,4.68,0,7,0a2.74,2.74,0,0,1,2.88,2.89c0,.6,0,1.2,0,1.8v1a4.37,4.37,0,0,1,4.17,4.63c0,1.38,0,2.76,0,4.13,0,.23.05.35.3.4a2.2,2.2,0,0,1,1.37.86A9.42,9.42,0,0,1,560.53,541.18Zm-4.73-2.29c0-1.67,0-3.27,0-4.87a1.92,1.92,0,0,0-2-1.82H524.6a2,2,0,0,0-2,2v21.29a2,2,0,0,0,2,2h29.12a2,2,0,0,0,2-2.06c0-1.11,0-2.23,0-3.34v-1.45h-.54c-1.52,0-3,.07-4.56-.08a5.82,5.82,0,0,1-5.13-5.7,5.89,5.89,0,0,1,5-5.94,11.11,11.11,0,0,1,1.41-.08Zm-17.93-9.08c0-1,0-2,0-2.94a2.73,2.73,0,0,1,2.7-2.72h.58c-.23-.65-.43-1.23-.64-1.8-.15-.39-.3-.46-.7-.32l-13.47,4.91c-.41.15-.47.3-.32.72.22.6.46,1.2.66,1.81a.43.43,0,0,0,.5.35h10.69Zm16.57,11.44h-3a3.54,3.54,0,0,0,0,7.07c2.07,0,4.14,0,6.21,0,.41,0,.54-.13.54-.54v-6c0-.44-.11-.56-.56-.56Zm-2.8-11.44v-2.65c0-.55-.09-.64-.64-.64H540.85c-.07,0-.18,0-.23,0s-.37.24-.37.37c0,1,0,1.93,0,2.91Z" transform="translate(-520.23 -519.61)"/><path class="cls-1" d="M550.3,544.76a1.18,1.18,0,1,1,1.15,1.21A1.19,1.19,0,0,1,550.3,544.76Z" transform="translate(-520.23 -519.61)"/></svg>