<svg id="Слой_1" data-name="Слой 1" xmlns="http://www.w3.org/2000/svg" viewBox="0 0 65.07 51.94"><defs><style>.cls-1{fill:#f1c426;}</style></defs><path class="cls-1" d="M57.11,44a4.27,4.27,0,0,1,.72.52q3.06,3,6.09,6.08a2.12,2.12,0,0,1,.42,2.61A2,2,0,0,1,62,54.29a3.21,3.21,0,0,1-1.3-.78c-2-2-4-4-6-6a3.76,3.76,0,0,1-.41-.6A16.34,16.34,0,0,1,32.77,22.33,16.34,16.34,0,0,1,57.11,44ZM44.24,22a12,12,0,1,0,12,12A12,12,0,0,0,44.24,22Z" transform="translate(0.46 -10.03)"/><path class="cls-1" d="M23.88,57.63q10.9,0,21.81,0A2.17,2.17,0,1,1,46.11,62c-.22,0-.45,0-.67,0H2.21a4.9,4.9,0,0,1-.94-.05,2.16,2.16,0,0,1,.52-4.28c3.82,0,7.63,0,11.45,0Z" transform="translate(0.46 -10.03)"/><path class="cls-1" d="M22.93,14.36h-21A2.17,2.17,0,0,1-.33,11.49a2.09,2.09,0,0,1,1.77-1.44,2,2,0,0,1,.35,0H44a2.19,2.19,0,0,1,2.41,2,2.16,2.16,0,0,1-2.29,2.29H22.93Z" transform="translate(0.46 -10.03)"/><path class="cls-1" d="M11.84,21.92c3.29,0,6.59,0,9.89,0a2.18,2.18,0,1,1,0,4.33H2a2.18,2.18,0,1,1,0-4.33Z" transform="translate(0.46 -10.03)"/><path class="cls-1" d="M11.88,33.84h10A2.11,2.11,0,0,1,24,35.18a1.86,1.86,0,0,1-.4,2.25,2.79,2.79,0,0,1-1.6.72c-6.75,0-13.5,0-20.25,0a2.16,2.16,0,1,1,.05-4.32Z" transform="translate(0.46 -10.03)"/><path class="cls-1" d="M11.88,50.11H2a2.18,2.18,0,1,1,0-4.33H21.73a2.18,2.18,0,1,1,0,4.33Z" transform="translate(0.46 -10.03)"/></svg>