<svg id="Слой_1" data-name="Слой 1" xmlns="http://www.w3.org/2000/svg" viewBox="0 0 377.49 378.21"><defs><style>.cls-1{fill:#f1c426;}</style></defs><path class="cls-1" d="M716.61,565c.12-11.95.12-23,0-33.83a13.88,13.88,0,0,1,4-10.43,25.87,25.87,0,0,0,7.6-15.71,107.14,107.14,0,0,0-1.52-32.61c-4.76-22.6-16.54-41.35-35-55.73a26.38,26.38,0,0,1-9.88-14.82,8.79,8.79,0,0,1,.71-2.33l.32-.84c.35-.92.83-1.88,1.34-2.9a19,19,0,0,0,2.4-7c.43-6.39.32-12.85.22-19.1,0-1.47,0-2.93-.07-4.39-.1-8.81-6.53-15.23-15.29-15.26q-14.76-.06-29.52-.05t-29.64.05c-8.93,0-15.24,6.27-15.35,15.19l0,2.12c-.09,7.1-.18,14.44.13,21.67.14,3.11,1.18,7.25,3.69,9.55,1.7,1.55,1.83,2.65.64,5.14l-.66,1.37c-1.28,2.72-2.61,5.54-4.45,7.41-4,4.06-8.23,7.8-12.71,11.75l-2.9,2.56A50.4,50.4,0,0,1,573,401.28a3.12,3.12,0,0,1,.66-.9,15.72,15.72,0,0,0,5.22-11.81q0-3.74,0-7.47c0-5.18,0-10.54,0-15.82A14.94,14.94,0,0,0,563.55,350Q551.74,350,540,350t-23.59.06c-8.91,0-15.21,6.3-15.32,15.22-.06,4.92,0,9.91,0,14.74q0,4.28,0,8.54A16.48,16.48,0,0,0,505.73,400a4.55,4.55,0,0,1,1.13,2.54c-.69,12.56-5,23.13-12.78,31.41-8.9,9.46-14.8,18.34-18.45,28a149,149,0,0,1-10.28-48.73,3.41,3.41,0,0,1,.69-.92,15.91,15.91,0,0,0,5-11.86q0-6.76,0-13.53c0-7,0-14.24,0-21.37-.06-9.06-6.44-15.41-15.52-15.44q-14.73,0-29.45,0t-29.33,0c-9.08,0-15.45,6.37-15.51,15.44,0,6.89,0,13.9,0,20.67q0,7.11,0,14.23a16.07,16.07,0,0,0,5,11.82,3,3,0,0,1,.73,1.47c-.28,4.47-.71,10.36-1.57,16.15A150.74,150.74,0,0,1,361.8,490.6a63.33,63.33,0,0,0-10.5,35.28c0,49.1-.06,110.21,0,168.81,0,19,14.35,33.37,33.33,33.43q18.41.07,36.82.07c16.56,0,31.7-.05,46.3-.14a34.13,34.13,0,0,0,7.65-1.19c1.42-.34,2.77-.66,4.09-.85a12.65,12.65,0,0,1,1.84-.17,3.29,3.29,0,0,1,1.27.18,22.55,22.55,0,0,0,9.37,2.11c6.7,0,12.68-3.21,16.84-9,.86-1.22,1.67-2.46,2.46-3.66s1.41-2.16,2.14-3.2c.89-1.25,1.83-2,2.59-2s1.64.68,2.49,1.88,1.54,2.26,2.32,3.47c.67,1,1.33,2,2,3,4.19,6.05,10.43,9.52,17.13,9.52s12.8-3.41,17-9.34c.72-1,1.41-2.08,2.09-3.14.9-1.38,1.75-2.69,2.68-3.93a3.06,3.06,0,0,1,2.19-1.51,3.27,3.27,0,0,1,2.29,1.58c1.45,1.93,2.74,4,3.82,5.7,4.38,7.07,11,10.65,19.8,10.65q19.63,0,39.27,0h65.54c19.66,0,34-14.3,34-33.93q0-25.56,0-51.12,0-23.21,0-46.41c0-8.5-2.77-15.74-8.25-21.5A13.63,13.63,0,0,1,716.61,565ZM588.76,709.67a.11.11,0,0,0,0,0,6.47,6.47,0,0,1-3.24-1.39,12.89,12.89,0,0,1-2.4-3.33c-.4-.69-.82-1.41-1.29-2.11-4.69-7-11.06-10.87-17.94-10.87s-13.37,3.91-18.1,11c-.42.61-.82,1.24-1.22,1.86-.81,1.27-1.58,2.47-2.43,3.6a2.41,2.41,0,0,1-4.49,0c-.89-1.2-1.7-2.46-2.57-3.79s-1.72-2.65-2.67-4a20.06,20.06,0,0,0-32.91,0c-1.26,1.73-2.43,3.52-3.55,5.25-.51.78-1,1.55-1.53,2.32-1.26,1.9-2.2,1.9-2.51,1.9a3.09,3.09,0,0,1-.8-.13c-1.07-.31-2.12-.82-2.12-3.36q0-13.46,0-26.91c0-18.46,0-37.54.1-56.31a47.8,47.8,0,0,1,5-20.38c8.7-18.13,8.82-38.29.34-55.31a53.76,53.76,0,0,1-2.26-5.53h95.39c-.93,2.43-1.81,4.73-2.84,6.93-7.61,16.33-7.42,35.6.52,52.89a61,61,0,0,1,5.59,26.31c-.09,18.09-.07,36.47-.06,54.24q0,10.95,0,21.89c0,.4,0,.83.08,1.26,0,.15,0,.36,0,.52l-.45.81A11.06,11.06,0,0,1,588.76,709.67ZM471.3,630.94c.19,9.72.15,19.62.1,29.2q0,6.39,0,12.78v1.21h-102v-126h43.69c18,0,39.32,0,60.94-.07,1.71,0,1.72.05,2.13,1.36.86,2.74,1.88,5.43,2.86,8a95.73,95.73,0,0,1,3.71,11.19c1.87,7.72.8,15.76-3.17,23.91A82,82,0,0,0,471.3,630.94ZM399.36,374.13v-6h53v6Zm5,47.83c.25-1.94.49-3.88.75-5.83h42c.37,2.43.73,4.86,1.09,7.27,1.05,7.12,2.14,14.48,3.62,21.64,3.18,15.27,9.07,30.37,18,46.17a11.34,11.34,0,0,1,1.35,5.23c.13,9,.11,17.81.09,27.14,0,2.17,0,4.36,0,6.55H369.1a49.48,49.48,0,0,1,8.15-30.42,162.74,162.74,0,0,0,24.39-59.42C402.8,434.22,403.58,428,404.33,422Zm-5-23.83v-6h53v6Zm72,294v17.39a37.8,37.8,0,0,1-4.82.42q-22.65.06-45.3,0H386.38c-11.13,0-17-5.86-17-16.93v-.92Zm48-306v-18h41v18Zm3.55,29.6c.72-3.19,1.18-6.48,1.63-9.67l.27-1.93H555.1l.24,1.76c.42,3.16.86,6.42,1.58,9.62a69.29,69.29,0,0,0,18.49,33.71A52.65,52.65,0,0,1,590,476.13H490a49.93,49.93,0,0,1,13.64-25.89C513.7,439.88,520,428.59,522.91,415.73Zm67.45,78.4v30h-101v-30ZM593,439.59a80.16,80.16,0,0,1,7.12-6.38c10.67-8.07,17.09-17.6,19.56-29.08h44.1c3.06,13.89,12.16,23,19.91,29.44,18.38,15.32,27.29,35.15,27.17,60.56H609.48c-.27-2.19-.53-4.38-.77-6.52-.8-6.83-1.62-13.9-3.07-20.75-1.83-8.65-6.15-16.76-13.91-26ZM611.4,590.38a29.7,29.7,0,0,1,15.86,4.88c2.09,1.31,4.06,2.82,6.14,4.42,1,.77,2,1.54,3,2.29,5.62,4.13,11.53,6.22,17.57,6.22a30.17,30.17,0,0,0,16.47-5.27c1.13-.73,2.24-1.48,3.35-2.23l3.2-2.12a12.77,12.77,0,0,1,7-2.3,12.09,12.09,0,0,1,6.12,1.8c6.92,4,13.69,8.1,20.07,12a1.77,1.77,0,0,1,.41.73,23,23,0,0,1,.11,3.28H608.3L601,592.36A29.5,29.5,0,0,1,611.4,590.38Zm88.18-7.87a29.58,29.58,0,0,0-32.43.78c-1.15.73-2.29,1.5-3.42,2.26-1.49,1-2.89,2-4.35,2.83A10.33,10.33,0,0,1,654,590a10.63,10.63,0,0,1-5.86-2c-1.72-1.15-3.36-2.41-5.09-3.75l-2-1.51c-9.25-7-19.17-10.52-29.49-10.52a50.6,50.6,0,0,0-14.77,2.3A27.41,27.41,0,0,1,599.44,561c7.26-14.38,10.35-30.38,9.46-48.86h95.38c-4.21,6.11-6,13.44-5.7,22.64.31,8.18.22,16.55.13,24.65q0,3.38-.07,6.77a31,31,0,0,0,7.74,20.35C704.16,585.19,701.88,583.82,699.58,582.51ZM658.75,710.13H608.36v-78h102v19.22q0,20.91,0,41.82c0,10.93-5.93,17-16.66,17Zm-43.39-324v-18h53v18Z" transform="translate(-351.27 -349.98)"/></svg>