<svg id="Слой_1" data-name="Слой 1" xmlns="http://www.w3.org/2000/svg" viewBox="0 0 58.25 55.62"><defs><style>.cls-1{fill:#f1c426;}</style></defs><path class="cls-1" d="M45.35,9.6A2.15,2.15,0,0,0,43.6,8.12L26.1,5.61,18.27-10.3a2.15,2.15,0,0,0-1.94-1.2,2.11,2.11,0,0,0-1,.22,2.23,2.23,0,0,0-1,1L6.56,5.61l-17.5,2.51A2.15,2.15,0,0,0-12.37,9a2.21,2.21,0,0,0-.41,1.61,2.22,2.22,0,0,0,.64,1.25L.51,24.16l-3,17.43a2.14,2.14,0,0,0,.36,1.61,2.17,2.17,0,0,0,1.41.89l.36,0a2.23,2.23,0,0,0,1-.25l15.63-8.23L32,43.87a2.22,2.22,0,0,0,1,.25h0A2.14,2.14,0,0,0,35.11,42a2.44,2.44,0,0,0,0-.54l-3-17.31L44.79,11.82A2.14,2.14,0,0,0,45.35,9.6ZM2.55,38,5,23.77a2.21,2.21,0,0,0-.62-1.93L-6,11.77,8.34,9.7A2.12,2.12,0,0,0,10,8.51L16.33-4.43,22.72,8.51a2.17,2.17,0,0,0,1.6,1.19L38.6,11.77,28.29,21.84a2.21,2.21,0,0,0-.62,1.93L30.11,38,17.34,31.27a2.17,2.17,0,0,0-2,0Z" transform="translate(12.8 11.5)"/></svg>