<svg id="Слой_1" data-name="Слой 1" xmlns="http://www.w3.org/2000/svg" viewBox="0 0 43.68 36.73"><defs><style>.cls-1{fill:#f1c426;}</style></defs><path class="cls-1" d="M545.16,544.42a2.68,2.68,0,0,1-3.66-2.54,8.07,8.07,0,0,1,.39-2.43,13.9,13.9,0,0,1,3-5.24,10.23,10.23,0,0,0,1.61-2.37c.56-1.09,1.26-2.1,1.9-3.15.07-.12.15-.23.28-.42a49,49,0,0,1-13.89.26c.14.18.22.31.31.44a17.65,17.65,0,0,1,3.41,8.08c.57,5.16-.41,10-3.82,14.05-.33.4-.64.81-1,1.19a.59.59,0,0,0,0,.93l1.29,1.32a4.52,4.52,0,0,1,1.24,2.16c.26,1.15-.12,1.72-1.3,1.93a4.14,4.14,0,0,1-2.17-.32c-.43-.15-.86-.3-1.29-.48a2,2,0,0,0-1.69,0,17.79,17.79,0,0,1-2.24.85,2.44,2.44,0,0,1-2.08-.41,1.06,1.06,0,0,1-.5-1,3.75,3.75,0,0,1,1-2.44c.49-.55,1-1.07,1.53-1.61s.46-.58,0-1.08a19.52,19.52,0,0,1-3.18-4.66c-.44-1-.79-2.07-1.19-3.11a2.8,2.8,0,0,1-2.71-.5,2.76,2.76,0,0,1-.94-2.54,12.23,12.23,0,0,1,2.16-5.57,8.39,8.39,0,0,1,2-2.41.77.77,0,0,0,.19-.28,23.71,23.71,0,0,1,3.51-5.75,2.51,2.51,0,0,1,.17-.23c-.21-.06-.37-.12-.54-.16a47.53,47.53,0,0,1-7.88-2.86,1.81,1.81,0,0,1-.59-.42,1,1,0,0,1,0-1.26,1.06,1.06,0,0,1,1.29-.27c1.24.52,2.45,1.1,3.72,1.54,1.74.6,3.51,1.09,5.28,1.61a.67.67,0,0,0,.55-.16c1.14-1.06,1.49-1.14,2.47.05a3.91,3.91,0,0,0,2.91,1.24,51.84,51.84,0,0,0,7.37.36,42.52,42.52,0,0,0,8.41-1,1,1,0,0,0,.43-.24c.3-.26.57-.56.87-.83a1,1,0,0,1,1.46,0,.66.66,0,0,0,.73.14,45,45,0,0,0,6-2.43,5.2,5.2,0,0,1,.53-.26,1,1,0,0,1,1.33.46,1,1,0,0,1-.43,1.36q-1.34.69-2.7,1.29c-1.15.48-2.31.92-3.51,1.39.1.13.19.26.3.38a19.76,19.76,0,0,1,4.62,8.73A17.83,17.83,0,0,1,556.72,551c-.36.45-.71.9-1.09,1.32a.56.56,0,0,0,0,.89c.43.44.86.87,1.28,1.32a4.52,4.52,0,0,1,1.3,2.32,1.32,1.32,0,0,1-1.18,1.77,3.46,3.46,0,0,1-1.86-.14,13.76,13.76,0,0,1-1.44-.54,2.52,2.52,0,0,0-2.3.08,9.8,9.8,0,0,1-2,.72,2.47,2.47,0,0,1-2-.39,1.07,1.07,0,0,1-.51-1,3.67,3.67,0,0,1,1-2.48c.47-.54,1-1,1.47-1.55s.5-.64,0-1.19a18.87,18.87,0,0,1-3.33-5C545.78,546.26,545.49,545.35,545.16,544.42ZM556,556.53c-.25-.29-.4-.49-.58-.67-.32-.34-.67-.66-1-1-1.36-1.43-1.4-2.54-.17-4.07.57-.7,1.17-1.38,1.67-2.12a16.26,16.26,0,0,0,2.43-11.87,12.18,12.18,0,0,0-1.16-3.51,11.1,11.1,0,0,1-1.2,1.34,6.91,6.91,0,0,1-5,1.23,1,1,0,0,1-.87-1,1,1,0,0,1,1-1c.49,0,1,0,1.49-.09,2-.18,2.86-1.1,2.93-3a.82.82,0,0,0-.14-.51c-.72-.92-1.45-1.83-2.19-2.74-.07-.09-.19-.21-.26-.19-.4.11-.92.15-1.17.42a21.32,21.32,0,0,0-4.35,7,16.43,16.43,0,0,0,2.26,14.45c.5.66,1.06,1.28,1.56,1.94a2.37,2.37,0,0,1-.06,3.27c-.37.47-.82.88-1.23,1.32-.25.27-.5.57-.8.91a26.48,26.48,0,0,1,3.33-1C553.69,555.43,554.72,556.2,556,556.53Zm-20.77-23.29a13.7,13.7,0,0,1-.85,1.09,5.38,5.38,0,0,1-3.43,1.48,14.14,14.14,0,0,1-1.72.07,1,1,0,0,1-1-1.06,1,1,0,0,1,1.05-1,3.42,3.42,0,0,0,.64,0,18.18,18.18,0,0,0,2.33-.49,2.16,2.16,0,0,0,1.32-1.68,1.8,1.8,0,0,0-.4-1.89,6.48,6.48,0,0,1-.67-.89,2.38,2.38,0,0,0-1.59-1,1.4,1.4,0,0,0-1.64.59c-3,3.71-5,7.74-4.42,12.69a15.47,15.47,0,0,0,3.2,8.35c.45.56.92,1.09,1.35,1.67a2.33,2.33,0,0,1-.05,3.2c-.36.46-.8.86-1.19,1.29s-.56.62-.87,1a24.57,24.57,0,0,1,3.33-1c1.17-.2,2.2.57,3.33.82a10.62,10.62,0,0,0-.82-.94,16.1,16.1,0,0,1-1.17-1.31,2.28,2.28,0,0,1,0-2.93,14.2,14.2,0,0,1,.91-1.14c3.2-3.65,4.1-8,3.67-12.65A12.27,12.27,0,0,0,535.19,533.24Zm9.39,5.1a8,8,0,0,0-1,2.79c-.19,1.21-.05,1.38,1.19,1.41Zm-22,0a7.72,7.72,0,0,0-.49,1.09c-.21.74-.38,1.49-.52,2.24-.06.33,0,.72.42.82.28.06.58.07.83.1Z" transform="translate(-518.36 -522.08)"/><path class="cls-1" d="M552.41,542.63a16.13,16.13,0,0,0,1.64-.45c.58-.23.71-.46.49-1-.33-.88-.76-1.72-1.15-2.57,0-.11-.15-.21-.21-.32a1,1,0,0,1,.32-1.33,1,1,0,0,1,1.32.15,8.13,8.13,0,0,1,1.85,4.61,2,2,0,0,1-.7,1.64,4.72,4.72,0,0,1-4.22,1.15,1.63,1.63,0,0,1-1.36-1.46,13.11,13.11,0,0,1,.21-4c.07-.44.16-.87.25-1.3a1,1,0,0,1,1.23-1,1.07,1.07,0,0,1,.8,1.35c-.16,1-.33,2-.46,3A14.18,14.18,0,0,0,552.41,542.63Z" transform="translate(-518.36 -522.08)"/><path class="cls-1" d="M552.91,531.23a1,1,0,0,1-1,1,1,1,0,0,1-1-1,1,1,0,0,1,1-1A1,1,0,0,1,552.91,531.23Z" transform="translate(-518.36 -522.08)"/><path class="cls-1" d="M528.24,541.84c.23-1.43.45-2.87.7-4.3a1,1,0,0,1,1.24-.77,1,1,0,0,1,.76,1.22c-.18,1.31-.38,2.62-.52,3.94-.07.63,0,.64.63.57,1.54-.16,1.89-.69,1.31-2.1a16.78,16.78,0,0,0-1-2,1.06,1.06,0,0,1,.19-1.48,1,1,0,0,1,1.46.27,8.56,8.56,0,0,1,1.72,4.09,2.4,2.4,0,0,1-1.22,2.46,5.1,5.1,0,0,1-3.4.78,1.74,1.74,0,0,1-1.66-1.67c0-.34-.07-.68-.1-1Z" transform="translate(-518.36 -522.08)"/><path class="cls-1" d="M528.92,531.25a1,1,0,0,1,1-1,1,1,0,0,1,1.06,1,1,1,0,0,1-1,1A1,1,0,0,1,528.92,531.25Z" transform="translate(-518.36 -522.08)"/></svg>