<svg id="Слой_1" data-name="Слой 1" xmlns="http://www.w3.org/2000/svg" viewBox="0 0 63.02 59.1"><defs><style>.cls-1{fill:#f1c426;}</style></defs><path class="cls-1" d="M23.47,45.86A2.11,2.11,0,0,1,22,45.24a2.06,2.06,0,0,1-.58-1.46V25.9a1,1,0,0,0-1-1H12.35a1,1,0,0,0-1,1V43.74a2.13,2.13,0,0,1-.61,1.49,2.05,2.05,0,0,1-1.45.61H-5a2,2,0,0,1-1.46-.62A2.09,2.09,0,0,1-7,43.74V16.31a1,1,0,0,0-.61-.93A1.07,1.07,0,0,0-8,15.31a1,1,0,0,0-.7.29l-2.93,2.93a2,2,0,0,1-1.4.55,2,2,0,0,1-1.45-.59,2,2,0,0,1,0-2.88L12.8-11.74a5.07,5.07,0,0,1,3.61-1.5A5.07,5.07,0,0,1,20-11.74L47.39,15.62A2.05,2.05,0,0,1,45.82,19a2,2,0,0,1-1.36-.52l-2.91-2.91a1,1,0,0,0-.71-.29,1,1,0,0,0-.38.07,1,1,0,0,0-.62.93V43.74a2.08,2.08,0,0,1-1.39,2,2.2,2.2,0,0,1-.78.15Zm.08-25.14a2.13,2.13,0,0,1,1.47.61,2,2,0,0,1,.59,1.48V40.69a1,1,0,0,0,1,1h8.1a1,1,0,0,0,1-1l0-30.54a1,1,0,0,0-.29-.7L17.12-8.84a1,1,0,0,0-.71-.29h0a1,1,0,0,0-.7.29L-2.57,9.42a1,1,0,0,0-.29.71V40.68a1,1,0,0,0,1,1H6.21a1,1,0,0,0,1-1V22.82a2.08,2.08,0,0,1,2.06-2.09Z" transform="translate(15.13 13.24)"/></svg>