<svg id="Слой_1" data-name="Слой 1" xmlns="http://www.w3.org/2000/svg" viewBox="0 0 42.89 42.89"><defs><style>.cls-1{fill:#fff;}</style></defs><path class="cls-1" d="M16.37-5.14A21.45,21.45,0,1,0,37.82,16.31,21.44,21.44,0,0,0,16.37-5.14Zm0,38.61A17.16,17.16,0,1,1,33.53,16.31,17.16,17.16,0,0,1,16.37,33.47Zm0-18.23a2.14,2.14,0,0,0-2.14,2.14v6.43a2.15,2.15,0,1,0,4.29,0V17.38a2.14,2.14,0,0,0-2.15-2.14Zm0-8.58a2.68,2.68,0,1,0,2.68,2.68,2.68,2.68,0,0,0-2.68-2.68Zm0,0" transform="translate(5.07 5.14)"/></svg>