<svg id="Слой_1" data-name="Слой 1" xmlns="http://www.w3.org/2000/svg" viewBox="0 0 130 130"><defs><style>.cls-1{fill:#f0f0f0;}.cls-2{fill:#1e1413;}</style></defs><rect class="cls-1" width="130" height="130" rx="21"/><path class="cls-2" d="M35.75-6.88a4.31,4.31,0,0,0-4.32,4.31,4.31,4.31,0,0,0,4.32,4.32,4.31,4.31,0,0,0,4.31-4.32,4.3,4.3,0,0,0-4.31-4.31Zm16.54,8.7a27,27,0,0,0-1.65-8.74,17.74,17.74,0,0,0-4.18-6.37,16.87,16.87,0,0,0-6.36-4.13,26.2,26.2,0,0,0-8.74-1.7c-3.82-.21-5-.21-14.82-.21s-11,0-14.82.21A26.15,26.15,0,0,0-7-17.42a17.15,17.15,0,0,0-6.37,4.13,16.9,16.9,0,0,0-4.13,6.37,26.2,26.2,0,0,0-1.7,8.74c-.21,3.82-.21,5-.21,14.82s0,11,.21,14.82a26.2,26.2,0,0,0,1.7,8.74,17,17,0,0,0,4.13,6.37A17.15,17.15,0,0,0-7,50.7a26.15,26.15,0,0,0,8.74,1.7c3.82.21,5,.21,14.82.21s11,0,14.82-.21a26.2,26.2,0,0,0,8.74-1.7,16.87,16.87,0,0,0,6.36-4.13,17.48,17.48,0,0,0,4.18-6.37,27,27,0,0,0,1.65-8.74c0-3.82.22-5,.22-14.82s0-11-.22-14.82ZM45.82,31a19.94,19.94,0,0,1-1.22,6.68,11.18,11.18,0,0,1-2.7,4.15,11.69,11.69,0,0,1-4.15,2.7,20.45,20.45,0,0,1-6.68,1.22c-3.6.17-4.92.21-14.39.21S5.89,46,2.29,45.78a20.65,20.65,0,0,1-7-1.08,12.07,12.07,0,0,1-4-2.7,10.52,10.52,0,0,1-2.65-4.15A19.46,19.46,0,0,1-12.74,31c0-3.6-.21-4.93-.21-14.39s0-10.79.21-14.39a19.81,19.81,0,0,1,1.26-6.82,10.81,10.81,0,0,1,2.84-4,11.39,11.39,0,0,1,4-2.88,20.44,20.44,0,0,1,6.83-1.22c3.6,0,4.93-.21,14.39-.21s10.79,0,14.39.21a19.94,19.94,0,0,1,6.68,1.22A11.29,11.29,0,0,1,41.9-8.54a11.17,11.17,0,0,1,2.7,4,20,20,0,0,1,1.22,6.82C46,5.85,46,7.18,46,16.64S46,27.43,45.82,31ZM16.54-1.81A18.42,18.42,0,1,0,29.62,3.57,18.46,18.46,0,0,0,16.54-1.81Zm0,30.42a12,12,0,1,1,12-12,12,12,0,0,1-12,12Zm0,0" transform="translate(48.63 48.69)"/></svg>