<svg id="Слой_1" data-name="Слой 1" xmlns="http://www.w3.org/2000/svg" viewBox="0 0 22 62.43"><defs><style>.cls-1{fill:#f1c426;}</style></defs><path class="cls-1" d="M546.19,556.1a4.26,4.26,0,0,1-2.73-1,1.09,1.09,0,0,0-.17-.13l-.06,0a.36.36,0,0,0-.22-.07.33.33,0,0,0-.23.09,4.43,4.43,0,0,1-6,0,.36.36,0,0,0-.24-.09.38.38,0,0,0-.24.09,4.31,4.31,0,0,1-2.13,1.11,4.58,4.58,0,0,1-.83.08,4.31,4.31,0,0,1-3.23-1.47,4.35,4.35,0,0,1-1-3.49c.57-4.09,1.07-7.81,1.54-11.39a7.52,7.52,0,0,0-.6-3.87,16.34,16.34,0,0,1-1.26-7.25,16.53,16.53,0,0,1,5.74-11.82,1.55,1.55,0,0,0,.58-1.27c0-1.78,0-3.58,0-5.33v-1.65h9.45a.31.31,0,0,0,0,.1V511c0,1.56,0,3.13,0,4.7a1.27,1.27,0,0,0,.46,1,16.62,16.62,0,0,1,4.52,18.93,10.49,10.49,0,0,0-.46,5.78c.51,3.16,1.08,6.74,1.5,10.24a4.13,4.13,0,0,1-3.42,4.35A4.56,4.56,0,0,1,546.19,556.1Zm-2.1-3.78a4.27,4.27,0,0,0,.27.67,2.15,2.15,0,0,0,1.9,1.1h0A2.45,2.45,0,0,0,547,554a2.14,2.14,0,0,0,1.48-2.34c-.15-1.08-.31-2.16-.47-3.24l-.52-3.49a.37.37,0,0,0-.36-.31H532.37a.37.37,0,0,0-.36.31s-.14,1-.17,1.27l-.2,1.47c-.18,1.3-.36,2.59-.52,3.89a2.18,2.18,0,0,0,1.42,2.25,2.13,2.13,0,0,0,2.53-.81,3.53,3.53,0,0,0,.34-.74s0-.07,0-.11h2.22c.31.55,1.09,1.8,2,1.8a2.77,2.77,0,0,0,1.24-.35,2.5,2.5,0,0,0,1-1.32h2.18Zm-12.55-26.24a.37.37,0,0,0-.34.23l0,.07a.65.65,0,0,0,0,.15c0,.1,0,.2-.07.3a14.65,14.65,0,0,0,.91,8.24,9.83,9.83,0,0,1,.71,5.07c-.06.46-.11.92-.17,1.38l-.07.63a.35.35,0,0,0,.08.28.37.37,0,0,0,.28.13h13.83a.38.38,0,0,0,.36-.41l0-.21q0-.23-.06-.42a11.21,11.21,0,0,1,.52-6.47,15.73,15.73,0,0,0,1-7.53l0-.19c-.07-.7-.12-1.26-1-1.26H531.54Zm8.21-8.54h-2.44a1.57,1.57,0,0,0-.91.33,24.52,24.52,0,0,0-1.87,1.77,13.07,13.07,0,0,0-2.43,3.76.41.41,0,0,0,0,.34.38.38,0,0,0,.31.16H547a.37.37,0,0,0,.29-.14.38.38,0,0,0,.06-.31l0-.07a.47.47,0,0,0-.06-.19,14.34,14.34,0,0,0-4.24-5.42,1.33,1.33,0,0,0-.79-.23Zm-2.22-6.95a.36.36,0,0,0-.36.36v4a.37.37,0,0,0,.36.37h4.41a.37.37,0,0,0,.36-.37v-4a.36.36,0,0,0-.36-.36Z" transform="translate(-528.71 -508.55)"/><path class="cls-1" d="M536.87,560.08v10.65h-2.3v-6.92H532v-1.6h.27a2.52,2.52,0,0,0,2.83-2.13Z" transform="translate(-528.71 -508.55)"/><path class="cls-1" d="M547.43,570.73h-2.14v-6.19h-2.07l-.09,2.77q0,.45,0,.72a6.83,6.83,0,0,1-.09.71,4,4,0,0,1-.16.71,3.38,3.38,0,0,1-.28.59,1.55,1.55,0,0,1-.44.5,2.46,2.46,0,0,1-.65.31,3,3,0,0,1-.88.13,3.32,3.32,0,0,1-1.17-.16V569.1a3.4,3.4,0,0,0,.61.08c.62,0,.94-.54,1-1.63l.12-4.67h6.3Z" transform="translate(-528.71 -508.55)"/></svg>