<svg id="Слой_1" data-name="Слой 1" xmlns="http://www.w3.org/2000/svg" viewBox="0 0 62 54"><defs><style>.cls-1{fill:#e8942c;}</style></defs><path class="cls-1" d="M59.15,23a19.32,19.32,0,0,1-2.39-.23.62.62,0,0,1-.43-.25c-.5-1.17-1-2.35-1.45-3.58l.86-1.06c.32-.4.66-.78,1-1.18a1.57,1.57,0,0,0,0-2.22.86.86,0,0,0-.14-.13q-1.86-1.92-3.75-3.79a1.58,1.58,0,0,0-2.21-.28,1.45,1.45,0,0,0-.18.17c-.67.54-1.31,1.1-2,1.62a.74.74,0,0,1-.6.11c-1-.4-2-.86-3-1.25a.67.67,0,0,1-.48-.64c-.06-.85-.14-1.71-.24-2.56a1.54,1.54,0,0,0-1.51-1.57H37.5V1.83a1.54,1.54,0,0,0-3-.46,1.77,1.77,0,0,0,0,.46v7.4H28.39a7.22,7.22,0,0,0-5.63,2.71c-2.16,2.69-4.21,5.48-6.33,8.21a1.66,1.66,0,0,1-.86.56c-3.23.91-6.51,1.82-9.73,2.67A6.32,6.32,0,0,0,1,29.47V33.8A5.6,5.6,0,0,0,1.15,35a6.3,6.3,0,0,0,6.35,4.8c.37,0,.62,0,.77.47a7.94,7.94,0,0,0,15.05,0,.59.59,0,0,1,.69-.5H34.5v12.5a1.58,1.58,0,0,0,1.19,1.61A1.5,1.5,0,0,0,37.4,53a2.57,2.57,0,0,0,.16-.91V48.77H42.3a1.6,1.6,0,0,0,1.83-1.33,1.72,1.72,0,0,0,0-.32c.08-.86.17-1.63.22-2.45a.72.72,0,0,1,.54-.72c1-.36,2-.85,3-1.2a.71.71,0,0,1,.6.08c.69.53,1.35,1.12,2,1.71a1.57,1.57,0,0,0,2.23,0,.74.74,0,0,0,.12-.13c1.27-1.25,2.52-2.5,3.76-3.77a1.58,1.58,0,0,0,.29-2.22l-.16-.18c-.53-.65-1.06-1.31-1.61-1.93a.66.66,0,0,1-.09-.86c.45-1,.86-2,1.28-3a.66.66,0,0,1,.43-.35c.79-.11,1.58-.2,2.39-.24A1.83,1.83,0,0,0,61,30.62V24.24A1.91,1.91,0,0,0,59.15,23ZM15.75,42.7a4.92,4.92,0,1,1,4.92-4.93,4.92,4.92,0,0,1-4.92,4.93Zm18.69-6H23.67a7.92,7.92,0,0,0-3.29-5.46,7.76,7.76,0,0,0-4.72-1.5,8.07,8.07,0,0,0-7.83,6.93,3.2,3.2,0,0,1-3.78-2.51A2.22,2.22,0,0,1,4,33.66c-.05-1.45,0-2.89,0-4.34a3.28,3.28,0,0,1,2.56-3c2-.56,4-1.1,6.05-1.64,1.47-.41,2.93-.82,4.4-1.19a2.59,2.59,0,0,0,1.47-1c2-2.67,4.09-5.33,6.1-8a5.16,5.16,0,0,1,4.54-2.19h5.33Zm3.06-3.23V21.58a.56.56,0,0,1,.45-.66H38a6.84,6.84,0,0,1,3.3,13.2,7.11,7.11,0,0,1-3.37,0A.56.56,0,0,1,37.5,33.48ZM57.89,29c-.85.08-1.71.18-2.56.25-1,.11-1.47.41-1.72,1.38a16.16,16.16,0,0,1-1.91,4.51,1.59,1.59,0,0,0,.18,2.1c.54.67,1.11,1.35,1.63,2l-2.14,2.15L49.66,40c-1.09-.86-1.48-.94-2.66-.22a14.13,14.13,0,0,1-4,1.71c-1.14.3-1.44.66-1.56,1.82-.09.85-.15,1.67-.23,2.51H37.53V37.14a9.89,9.89,0,1,0,0-19.35V9.23h3.62c.07.76.16,1.51.23,2.26.11,1.37.42,1.65,1.71,2.1a37.29,37.29,0,0,1,4,1.71,1.79,1.79,0,0,0,2.44-.21l1.76-1.46.13-.08,2.09,2.11c-.49.58-1,1.22-1.52,1.84-.85,1-.85,1.44-.21,2.57a15.09,15.09,0,0,1,1.71,4.13c.28,1.11.63,1.41,1.76,1.54.86.11,1.72.17,2.57.25Z"/></svg>