<svg id="Слой_1" data-name="Слой 1" xmlns="http://www.w3.org/2000/svg" viewBox="0 0 44.11 42.93"><defs><style>.cls-1{fill:#f1c426;}</style></defs><path class="cls-1" d="M562.43,537.58V539a1.57,1.57,0,0,0-.08.29A6.07,6.07,0,0,1,559,543.8a53.49,53.49,0,0,1-14.33,5c-.69.14-1.39.26-2.08.39a.24.24,0,0,0,.19.12,43,43,0,0,0,12.3-.55,6.17,6.17,0,0,1,7.06,4.39c.12.41.18.83.27,1.25v1a1.09,1.09,0,0,0-.07.24,6.1,6.1,0,0,1-4.84,5.29,50.47,50.47,0,0,1-9.49,1A54.67,54.67,0,0,1,532.87,560a51.69,51.69,0,0,1-11.33-4.47,6.13,6.13,0,0,1-2.26-8.69.68.68,0,0,0,0-.87,6.17,6.17,0,0,1,.14-6.76,5.8,5.8,0,0,1,6.18-2.58,45.28,45.28,0,0,0,12,.69l1.07-.11,1.06-.15a62.88,62.88,0,0,1-8.58-2.24,53.54,53.54,0,0,1-9.51-4.31A6.19,6.19,0,0,1,524.81,519a7.06,7.06,0,0,1,3.37,1,41.71,41.71,0,0,0,16.25,5.15,42.41,42.41,0,0,0,10.91-.29,6.18,6.18,0,0,1,6.92,7.22,20.81,20.81,0,0,1-.94,2.66A6.81,6.81,0,0,1,562.43,537.58Zm-29.66,12.19c-.26-.09-.49-.16-.71-.26-2-.86-4-1.72-5.94-2.61a3.63,3.63,0,0,0-4.45,1,3.58,3.58,0,0,0,1.31,5.44,51.58,51.58,0,0,0,21.66,5.87,50.65,50.65,0,0,0,12.17-.86,3.57,3.57,0,0,0,2.92-4.26,3.63,3.63,0,0,0-4.33-2.79c-1.34.24-2.69.41-4,.57-.93.11-1.86.15-2.82.22-.13.88-.26,1.76-.41,2.63a1.29,1.29,0,1,1-2.54-.43c.11-.72.21-1.45.31-2.18l-4.12-.3c-.13.81-.24,1.6-.37,2.39a1.3,1.3,0,1,1-2.55-.44c.12-.78.22-1.56.34-2.34l-3.89-.88c0,.06,0,.1,0,.14-.11.68-.21,1.36-.32,2a1.31,1.31,0,0,1-1.49,1.2,1.33,1.33,0,0,1-1.07-1.6C532.51,551.5,532.63,550.66,532.77,549.77Zm.16-24.69a58.1,58.1,0,0,1-6.81-3.2,3.49,3.49,0,0,0-4.32,1.1,3.59,3.59,0,0,0,1.21,5.36,52,52,0,0,0,24.54,6.81,1.63,1.63,0,0,0,.62-.12c1.72-.73,3.44-1.44,5.13-2.22a6.2,6.2,0,0,1,3.63-.65,23.53,23.53,0,0,1,2.37.6c0-.07.12-.21.19-.37a3.59,3.59,0,0,0-3.76-4.95,55.79,55.79,0,0,1-6.82.54c-.24,0-.33.08-.37.31-.12.75-.27,1.49-.41,2.24a1.31,1.31,0,1,1-2.55-.49c.14-.7.26-1.4.39-2.12l-4.11-.44c-.16.82-.3,1.59-.45,2.37a1.3,1.3,0,1,1-2.55-.49c.15-.78.29-1.57.43-2.37l-3.88-1c-.13.71-.27,1.41-.39,2.11a1.38,1.38,0,0,1-.82,1.13,1.23,1.23,0,0,1-1.3-.19,1.33,1.33,0,0,1-.45-1.4C532.61,526.79,532.76,526,532.93,525.08Zm-11.45,19.58.13,0a6.54,6.54,0,0,1,6.19.18c1.71.86,3.51,1.54,5.28,2.3a1.62,1.62,0,0,0,.62.11,50,50,0,0,0,17.36-2.86c2.28-.82,4.48-1.85,6.68-2.84a3.54,3.54,0,0,0,2.07-3.65,3.61,3.61,0,0,0-5.2-2.81c-2.05.91-4.14,1.76-6.21,2.63-.23.09-.31.19-.27.43.08.47.14.94.21,1.41,0,.3.09.6.12.89a1.3,1.3,0,1,1-2.58.28c-.09-.7-.2-1.4-.3-2.12l-4,.87c.11.8.21,1.59.32,2.39a1.32,1.32,0,0,1-1.1,1.57,1.3,1.3,0,0,1-1.45-1.16c-.13-.8-.24-1.61-.36-2.43l-4,.25c.11.77.21,1.5.31,2.22a1.32,1.32,0,0,1-1.1,1.54,1.29,1.29,0,0,1-1.46-1.14c-.12-.78-.24-1.56-.33-2.34,0-.29-.15-.35-.41-.36a42.49,42.49,0,0,1-6.74-.82,3.52,3.52,0,0,0-3.94,1.94A3.46,3.46,0,0,0,521.48,544.66Z" transform="translate(-518.32 -518.96)"/></svg>