<svg id="Слой_1" data-name="Слой 1" xmlns="http://www.w3.org/2000/svg" viewBox="0 0 62 54"><defs><style>.cls-1{fill:#e8942c;}</style></defs><path class="cls-1" d="M.53,19.35h9.71a1,1,0,0,0,1-.55q5.17-8.7,10.4-17.4A2,2,0,0,1,23.8.26a1.92,1.92,0,0,1,1.2,3C24,5,22.92,6.74,21.88,8.48L15.69,18.73a2.37,2.37,0,0,1-.32.46H46.69a1.81,1.81,0,0,1-.32-.46C43.31,13.62,40.23,8.51,37.2,3.37a2.85,2.85,0,0,1-.38-1.56A1.75,1.75,0,0,1,38.34.26a1.91,1.91,0,0,1,2,1q2.58,4.28,5.12,8.55c1.82,3,3.65,6.06,5.45,9.11a.82.82,0,0,0,.8.45h9.8V23H57.42c-.3,1.7-.59,3.22-.87,4.74q-2,10.61-4,21.22a5.69,5.69,0,0,1-5.77,4.78H15.29a5.77,5.77,0,0,1-5.83-4.93Q7.1,36.17,4.69,23.59a.74.74,0,0,0-.08-.38H.49Zm8.05,3.82a1.56,1.56,0,0,0,.08.62q2.27,12.08,4.52,24.15a2,2,0,0,0,2,2,1.8,1.8,0,0,0,.4,0h31a2,2,0,0,0,2.35-1.69,1.71,1.71,0,0,0,0-.31q2-10.75,4-21.51c.2-1.06.39-2.13.58-3.21Z"/></svg>