<svg id="Слой_1" data-name="Слой 1" xmlns="http://www.w3.org/2000/svg" viewBox="0 0 50.22 63.59"><defs><style>.cls-1{fill:#f1c426;}</style></defs><path class="cls-1" d="M565.5,565.94c-.19-3-.46-6-.7-9q-.46-5.79-.94-11.56-.52-6.6-1.07-13.18-.31-4-.65-8a2.22,2.22,0,0,0-2.4-2.22h-6.38c-.05-.69-.08-1.37-.16-2A12.88,12.88,0,0,0,542,508.65a3.11,3.11,0,0,1-.41-.11h-2.31a1.32,1.32,0,0,0-.34,0,29.32,29.32,0,0,0-3.4.92,12.82,12.82,0,0,0-8.11,11.81V522H521a2.21,2.21,0,0,0-2.4,2.21q-.82,10.11-1.64,20.23c-.57,7-1.17,13.93-1.69,20.9-.27,3.68,1.41,5.85,5,6.74l.17.05.16,0h39a3.88,3.88,0,0,0,1.31-.23,9.27,9.27,0,0,0,2.1-.94A5.43,5.43,0,0,0,565.5,565.94Zm-29.63-51.63a8,8,0,0,1,9,0,8.26,8.26,0,0,1,4,7.64H531.92A8.23,8.23,0,0,1,535.87,514.31Zm23.51,53.37h-38a1.52,1.52,0,0,1-1.67-1.86c.37-4.39.71-8.78,1.07-13.17s.71-8.71,1.07-13.06q.46-5.72.92-11.44c0-.56.09-1.11.15-1.71h4.56v10.85a2.23,2.23,0,1,0,4.45,0c0-2.86,0-5.71,0-8.57v-2.21h16.94v.75c0,3.33,0,6.66,0,10a2.22,2.22,0,1,0,4.44.1q0-5.05,0-10.12v-.73h4.57l.39,4.74,1.2,14.78q.53,6.43,1,12.87c.18,2.31.36,4.62.56,6.93A1.52,1.52,0,0,1,559.38,567.68Z" transform="translate(-515.29 -508.54)"/></svg>