<svg id="Слой_1" data-name="Слой 1" xmlns="http://www.w3.org/2000/svg" viewBox="0 0 62 54"><defs><style>.cls-1{fill:#e8942c;}</style></defs><path class="cls-1" d="M58,14.62a1.87,1.87,0,0,0-1.15-1.88Q44.45,6.58,32.09.36A2.26,2.26,0,0,0,31,.08a2.39,2.39,0,0,0-1.08.29c-10,5-17.51,8.77-24.57,12.28A2.17,2.17,0,0,0,4,14.87V39.4a1.79,1.79,0,0,0,1.1,1.8Q17.56,47.4,29.93,53.65a2.22,2.22,0,0,0,2.15,0q12.35-6.21,24.7-12.37a1.92,1.92,0,0,0,1.2-1.9Q58,27,58,14.62ZM7.11,16.67l5.16,2.58,17,8.47a.46.46,0,0,1,.31.52V50.09L29.36,50,7.29,39C7,38.85,7,38.8,7,38.58v-22ZM31,2.91h0v.24a.92.92,0,0,1,.4.15l18.68,9.3,3.19,1.61-.91.46c-1,.51-2.06,1-3.1,1.53a.77.77,0,0,1-.34.07.38.38,0,0,1-.15,0Q38.48,11.17,28.24,6l-1.53-.77.6-.3C28.54,4.34,29.8,3.74,31,3.15ZM55,38.36a.67.67,0,0,1-.45.72q-8.7,4.32-17.42,8.69l-4.32,2.17-.35.16V28.31a.57.57,0,0,1,.39-.64c1.17-.56,2.34-1.15,3.56-1.76l1-.51V36.13a1.61,1.61,0,0,0,.63,1.46,1.43,1.43,0,0,0,.83.26A1.64,1.64,0,0,0,40.27,37l2.88-4.15L44.49,31l.29-.42,1.39,1,1.5,1.07a1.7,1.7,0,0,0,1,.38,1.4,1.4,0,0,0,.63-.16,1.5,1.5,0,0,0,.83-1.49V19.56a.63.63,0,0,1,.45-.71c1.17-.55,2.32-1.14,3.51-1.74l1-.52V21.1q-.07,8.64-.06,17.22Zm-7.92-9.69-1.58-1.12A2.25,2.25,0,0,0,44.29,27a1.78,1.78,0,0,0-1.37.95l-2.57,3.72V24.28a.57.57,0,0,1,.18-.39c1.85-.95,3.72-1.88,5.58-2.81l1-.5ZM44.83,18.41c-1.87.94-3.71,1.86-5.63,2.78H39c-7.34-3.67-14.68-7.33-22.06-11L18,9.61c1.66-.83,3.32-1.66,5-2.49a.78.78,0,0,1,.33-.07h.22q10.85,5.4,21.65,10.79l.34.16ZM9.53,13.83c1.37-.69,2.7-1.36,4.05-2h.05a.88.88,0,0,1,.34.1l16.94,8.46,5,2.49-.89.44c-1.25.65-2.51,1.27-3.78,1.89a.81.81,0,0,1-.27.05.48.48,0,0,1-.17,0Q20.86,20.32,11,15.36l-2.2-1.1Z"/></svg>