<svg id="Слой_1" data-name="Слой 1" xmlns="http://www.w3.org/2000/svg" viewBox="0 0 42.69 42.67"><defs><style>.cls-1{fill:#bfbfbf;}</style></defs><path class="cls-1" d="M37.68,34.71c-2-2-10.09-10-11.6-11.52l.46-.64a17.44,17.44,0,0,0,0-20.48A17.27,17.27,0,0,0,12.62-5,17.83,17.83,0,0,0,2.38-1.7,17.34,17.34,0,0,0,12.62,29.64a17.87,17.87,0,0,0,10.25-3.33l.64-.47,11.8,11.8L38,35Zm-25-8.88A13.55,13.55,0,0,1-.82,12.3,13.23,13.23,0,0,1,3,2.8a13.54,13.54,0,0,1,9.68-4,13.19,13.19,0,0,1,9.56,4,13.51,13.51,0,0,1-9.56,23.08Z" transform="translate(4.73 5.02)"/></svg>