<svg id="Слой_1" data-name="Слой 1" xmlns="http://www.w3.org/2000/svg" viewBox="0 0 62 54"><defs><style>.cls-1{fill:#de4e2a;}</style></defs><path class="cls-1" d="M3.86,43.9A3.43,3.43,0,0,1,6.48,45a4.45,4.45,0,0,1,0,5.56,3.45,3.45,0,0,1-2.63,1.06,3.56,3.56,0,0,1-2.67-1.06,3.92,3.92,0,0,1-1-2.79A3.82,3.82,0,0,1,1.2,45,3.55,3.55,0,0,1,3.86,43.9Zm1.46,1.92a2,2,0,0,0-2.78-.19l-.19.19a3.54,3.54,0,0,0,0,3.76,1.78,1.78,0,0,0,1.5.68,1.71,1.71,0,0,0,1.47-.69,3.52,3.52,0,0,0,0-3.75Z"/><path class="cls-1" d="M14.33,45.41H12v5.94H10.38V45.41H8V44.16h6.33Z"/><path class="cls-1" d="M20.26,45.41H16.82v5.94H15.23V44.16h5Z"/><path class="cls-1" d="M22.68,44.11v1A2.56,2.56,0,0,1,25,43.9,3,3,0,0,1,27.41,45a4.32,4.32,0,0,1,.88,2.79,4.1,4.1,0,0,1-.87,2.73,2.91,2.91,0,0,1-2.31,1.06,2.72,2.72,0,0,1-2.34-1.13v3.51H21.19V44.09Zm2,1.07a1.76,1.76,0,0,0-1.47.67,3.5,3.5,0,0,0,0,3.69,1.81,1.81,0,0,0,1.48.67,1.74,1.74,0,0,0,1.44-.67,2.86,2.86,0,0,0,.53-1.81,2.88,2.88,0,0,0-.54-1.86A1.72,1.72,0,0,0,24.7,45.18Z"/><path class="cls-1" d="M36,44.11l-2.66,7a2.18,2.18,0,0,1-.15.4L33,52c0,.13-.1.26-.16.39a2.75,2.75,0,0,1-.2.38c0,.08-.1.2-.2.34a1.31,1.31,0,0,1-.25.32l-.3.25a1.37,1.37,0,0,1-.35.2,3.31,3.31,0,0,1-.42.12h-.49a7.58,7.58,0,0,1-1.06-.09V52.57a4.59,4.59,0,0,0,.83.1h.31A1,1,0,0,0,31,52.5l.2-.23a1.18,1.18,0,0,0,.16-.29l.12-.29a1.55,1.55,0,0,1,.11-.33,2.29,2.29,0,0,0,.08-.28l-2.75-7h1.74l1.92,5.32,1.81-5.32Z"/><path class="cls-1" d="M47,51.29H45.1l-2.19-3.11-.67.74v2.37H40.71V48.92L40,48.18l-2.21,3.11h-1.9L39,47.18l-2.75-3.07H38.2l2.47,3h0v-3H42.2v3h0l2.46-3h1.92l-2.74,3.07Z"/><path class="cls-1" d="M54.15,49.05A3,3,0,0,1,53,50.87a3.45,3.45,0,0,1-2.13.66,3.3,3.3,0,0,1-2.57-1.07,3.8,3.8,0,0,1-1-2.69,4,4,0,0,1,1-2.79,3.17,3.17,0,0,1,2.5-1.06A3.1,3.1,0,0,1,53.32,45a4.43,4.43,0,0,1,.93,3v.17H48.92a2.62,2.62,0,0,0,.55,1.67,2,2,0,0,0,2.5.29,2.1,2.1,0,0,0,.65-1Zm-1.49-2a2.33,2.33,0,0,0-.55-1.43,1.85,1.85,0,0,0-2.55,0A2.51,2.51,0,0,0,49,47.05Z"/><path class="cls-1" d="M57.08,51.29h-1.6V44.11h1.6v2.81h3.14V44.11H61.8v7.18H60.22V48.18H57.08Z"/><path class="cls-1" d="M30.56,36.67H16.16a1.27,1.27,0,0,1-1.45-1.05,1.34,1.34,0,0,1,0-.4V13.77A14.09,14.09,0,0,1,15.17,11c.64-3.27,1.3-6.53,2-9.8A1.27,1.27,0,0,1,18.47,0H42.61A1.26,1.26,0,0,1,44,1.13v0q1.2,5.93,2.41,11.89a2.58,2.58,0,0,1,0,.68V35.22a1.26,1.26,0,0,1-1,1.45,1.08,1.08,0,0,1-.4,0ZM17.17,34.19H44V14.7H17.17Zm2.2-31.72-1.95,9.74H29.34V2.47Zm24.38,9.75-2-9.74h-10v9.74Z"/><path class="cls-1" d="M31.81,21.28v9.23a1.22,1.22,0,0,1-1.22,1.23,1.24,1.24,0,0,1-1.23-1.22h0V21.4l-.27.25-2.41,2.4a1.22,1.22,0,1,1-1.86-1.58.54.54,0,0,1,.15-.15l4.64-4.64a1.22,1.22,0,0,1,1.73-.23,1.25,1.25,0,0,1,.23.23l4.7,4.69a1.23,1.23,0,0,1,.34,1.33,1.15,1.15,0,0,1-1,.8,1.19,1.19,0,0,1-1.06-.41Z"/></svg>