<svg id="Слой_1" data-name="Слой 1" xmlns="http://www.w3.org/2000/svg" viewBox="0 0 62.97 62.97"><defs><style>.cls-1{fill:#f1c426;}</style></defs><path class="cls-1" d="M9.23,67.48A2.25,2.25,0,0,1,7,65.23V34.05a1,1,0,0,0-.5-.87,12,12,0,0,1-6-10.06A.52.52,0,0,1,.56,23a1,1,0,0,0,.15-.6c0-.12,0-.23,0-.35L7.14,5.94A2.25,2.25,0,0,1,9.23,4.53H54.94A2.26,2.26,0,0,1,57,5.93L63.45,22c0,.12,0,.23,0,.34a1.33,1.33,0,0,0,0,.2.86.86,0,0,1,0,.32V23a12.05,12.05,0,0,1-6,10.31,1,1,0,0,0-.5.87v31a2.25,2.25,0,0,1-2.25,2.25Zm29.23-24a2.25,2.25,0,0,1,2.25,2.25V62a1,1,0,0,0,1,1h9.74a1,1,0,0,0,1-1V36a1,1,0,0,0-1-1,12,12,0,0,1-9-4.13,1,1,0,0,0-.76-.35h0a1,1,0,0,0-.75.34,12,12,0,0,1-18,0,1,1,0,0,0-.75-.34h0a1,1,0,0,0-.75.35,12,12,0,0,1-9,4.13,1,1,0,0,0-1,1V62a1,1,0,0,0,1,1h9.74a1,1,0,0,0,1-1V45.75a2.25,2.25,0,0,1,2.25-2.25ZM28.72,48a1,1,0,0,0-1,1V62a1,1,0,0,0,1,1h6.49a1,1,0,0,0,1-1V49a1,1,0,0,0-1-1ZM11.44,9a1,1,0,0,0-.93.63L5.06,23.12a1,1,0,0,0-.08.41,7.48,7.48,0,0,0,7.48,7.22h.3A7.48,7.48,0,0,0,20,23a2.25,2.25,0,0,1,4.5,0,7.5,7.5,0,1,0,15,0A2.25,2.25,0,0,1,44,23a7.51,7.51,0,0,0,15,.56,1.12,1.12,0,0,0-.07-.45L53.42,9.65A1,1,0,0,0,52.49,9Z" transform="translate(-0.49 -4.52)"/></svg>