<svg id="Слой_1" data-name="Слой 1" xmlns="http://www.w3.org/2000/svg" viewBox="0 0 41.67 43.08"><defs><style>.cls-1{fill:#f1c426;}</style></defs><path class="cls-1" d="M528.7,557.7a.76.76,0,0,1-.18-.06,1.9,1.9,0,0,0-2.44,0c-.11.09-.36,0-.55,0a.85.85,0,0,1-.36-.17,1.19,1.19,0,0,0-1.54,0,1.07,1.07,0,0,1-1.37,0,1.1,1.1,0,0,0-1.46,0,1.11,1.11,0,0,1-.36.18.71.71,0,0,1-1.07-.69,16.77,16.77,0,0,1,.59-6,3.21,3.21,0,0,0,.12-1c0-5.93,0-11.87,0-17.81a10.35,10.35,0,0,0-.42-3.27,6.85,6.85,0,0,1-.3-2.34c0-.82,0-1.64,0-2.46s.54-1.06,1.11-.69a1.65,1.65,0,0,0,2.07,0,.81.81,0,0,1,1,.08,1.32,1.32,0,0,0,1.74,0,.93.93,0,0,1,1.17,0,1.27,1.27,0,0,0,1.66,0,1,1,0,0,1,1.2,0,1.27,1.27,0,0,0,1.66,0,1,1,0,0,1,1.25,0,1.2,1.2,0,0,0,1.58,0c.52-.4,1-.2,1.49.08.32.18.62.4,1,.11a.56.56,0,0,0,.3-.52c0-1.08,0-2.16,0-3.23s.49-1.25,1.29-.78a1.38,1.38,0,0,0,1.71,0,1,1,0,0,1,1.17,0c.07,0,.17.07.24.13a1,1,0,0,0,1.26,0,1.24,1.24,0,0,1,1.61,0,.93.93,0,0,0,1.21,0,1.31,1.31,0,0,1,1.69,0,.86.86,0,0,0,1.14,0,1.41,1.41,0,0,1,1.81,0,.79.79,0,0,0,1,0,1.44,1.44,0,0,1,1.85,0,.77.77,0,0,0,1,0,1.46,1.46,0,0,1,1.9,0,.74.74,0,0,0,1,0,1.44,1.44,0,0,1,1.89,0,.77.77,0,0,0,1,0,3.16,3.16,0,0,1,.52-.26c.63-.29,1.13,0,1.13.69a26.28,26.28,0,0,1-.37,6.51,13.93,13.93,0,0,0-.12,4.86,57.06,57.06,0,0,1,0,12.53,20.26,20.26,0,0,0,.31,6,35.81,35.81,0,0,1,.2,5.95.66.66,0,0,1-1,.6,1.85,1.85,0,0,0-2.25,0,1,1,0,0,1-.86-.11,1.39,1.39,0,0,0-1.75,0,1,1,0,0,1-1.21,0,1.2,1.2,0,0,0-1.58,0,1.08,1.08,0,0,1-1.33,0,7,7,0,0,0-.73-.37c0,.18,0,.32,0,.45V561c0,.94-.5,1.3-1.27.81a8.94,8.94,0,0,0-5.28-1.26c-3.38.11-6.76,0-10.14,0a2.06,2.06,0,0,0-.73.14c-1,.38-2,.78-3,1.17-.7.28-1.15,0-1.15-.77C528.69,560,528.7,558.84,528.7,557.7ZM521,528.24c0,.19.07.34.11.48a10.68,10.68,0,0,1,.4,3.23q0,8.46,0,16.9a10.85,10.85,0,0,1-.42,3.45,1.21,1.21,0,0,0-.05.34h7.58c0-1.33,0-2.62,0-3.92,0-1.07.37-1.32,1.37-.92s1.88.76,2.82,1.12a1.82,1.82,0,0,0,.65.12h8.18v-.58q0-8.73,0-17.48a6.36,6.36,0,0,1,.15-1.23c.09-.51.22-1,.34-1.52Zm38.45,22.24c0-.27-.06-.52-.1-.77a20.84,20.84,0,0,1-.3-6.11,58.69,58.69,0,0,0,0-12.5,13.66,13.66,0,0,1,.05-4.6c.15-.6.21-1.22.31-1.85H543.75c0,.25,0,.49,0,.73a11.65,11.65,0,0,1-.46,4.07,5.93,5.93,0,0,0-.21.83c0,.25,0,.51-.06.83a8.72,8.72,0,0,1,11.8.29A8.63,8.63,0,0,1,556,542.27a8.38,8.38,0,0,1-6.07,3.83,8.61,8.61,0,0,1-6.87-2.06v5c1.84.08,3.67.27,5.28-.9a5.26,5.26,0,0,1,.67-.34c.73-.35,1.2,0,1.21.77v1.92Zm-29.3,9.69c.8-.32,1.57-.63,2.35-.92a2.36,2.36,0,0,1,.78-.16q6.57,0,13.12,0a2.35,2.35,0,0,1,.86.2c.51.22,1,.49,1.55.76v-1.68h-1.44v-1.44h1.32v-1.43h-1.32v-1.44h1.32v-1.43h-1.32V551.2h1.44v-1.67c-.44.22-.85.4-1.23.62a2.85,2.85,0,0,1-1.43.37c-4.28,0-8.56,0-12.84,0a2.53,2.53,0,0,1-.86-.17c-.77-.28-1.53-.59-2.3-.9v1.77h1.43v1.44h-1.43v1.43h1.31v1.44h-1.31v1.43h1.43v1.44h-1.43Zm12.91-23.3c.74-2.37,2-3.57,3.84-3.62a3.66,3.66,0,0,1,2.2.66,4.47,4.47,0,0,1,1.82,2.93h2.58c.87,0,1.13.29,1,1.15a4.32,4.32,0,0,1-5.68,3.65.94.94,0,0,0-.55,0,3.63,3.63,0,0,1-4.19-1.19,13.63,13.63,0,0,1-1.05-1.91c0,.93,0,2,0,3.14a.64.64,0,0,0,.16.39,6.92,6.92,0,0,0,5.27,2.66A7.17,7.17,0,1,0,543.24,533a.67.67,0,0,0-.18.39C543.05,534.53,543.05,535.65,543.05,536.87Zm6.47-15.09v1.43H551v-1.43h1.44v1.31h1.43v-1.31h1.44v1.43h1.43v-1.43h1.44v1.31h1.43v-2.26c-.79.27-.8.29-1.59-.15a.9.9,0,0,0-1.1,0,1.36,1.36,0,0,1-1.77,0,.84.84,0,0,0-1.1,0,1.39,1.39,0,0,1-1.81,0,.82.82,0,0,0-1.06,0,1.39,1.39,0,0,1-1.81,0,.8.8,0,0,0-1.05,0,1.41,1.41,0,0,1-1.81,0,.81.81,0,0,0-1.06,0,1.41,1.41,0,0,1-1.81,0,.8.8,0,0,0-1.05,0,1.45,1.45,0,0,1-1.86,0l-.08,0a.67.67,0,0,0-.82,0c-.53.32-1.08.68-1.75.19v2.42h1.44v-1.43h1.43v1.43h1.44v-1.43h1.43v1.31h1.44v-1.31h1.44v1.31h1.43v-1.31Zm-7.18,3.33a1.12,1.12,0,0,1-1.48,0,1,1,0,0,0-1.3,0,1.24,1.24,0,0,1-1.58,0,1,1,0,0,0-1.3,0,1.24,1.24,0,0,1-1.61,0,1,1,0,0,0-1.26,0,1.25,1.25,0,0,1-1.61,0,1,1,0,0,0-1.26,0,1.27,1.27,0,0,1-1.62,0,1,1,0,0,0-1.3,0,1.19,1.19,0,0,1-1.54,0,1.13,1.13,0,0,0-1.33,0,1.22,1.22,0,0,1-1.54,0s-.08,0-.11-.07a.87.87,0,0,0-1.11,0c-.48.3-1,.59-1.58.09v1.69h21.53Zm12.92,26.81v1.31h-1.44v-1.31h-1.43v1.43H551v-1.43h-.72V554a6.58,6.58,0,0,1,.84.4,1,1,0,0,0,1.18,0,1.3,1.3,0,0,1,1.69,0,.91.91,0,0,0,1.18,0,1.3,1.3,0,0,1,1.69,0l.2.1a.68.68,0,0,0,.82,0c.53-.3,1.06-.69,1.73-.17V552h-1.43v1.31h-1.44v-1.43Zm-26.56,2.15h-7.89v1.69a1.15,1.15,0,0,1,1.52.06,1,1,0,0,0,1.27,0,1.24,1.24,0,0,1,1.57,0,1,1,0,0,0,1.34,0,1.34,1.34,0,0,1,.24-.12,1,1,0,0,1,1.06,0c.28.16.57.29.89.45Zm20.7-17.23a2.44,2.44,0,0,0-3.19-2,3,3,0,0,0,0,5.44,6.86,6.86,0,0,0,.77.18,5,5,0,0,1-1.06-2.68c0-.66.23-.93.89-.94Zm-1.9,1.44a2.8,2.8,0,0,0,5.45,0Z" transform="translate(-519.35 -518.9)"/><path class="cls-1" d="M523,541.47c0-1,0-2,0-3a3,3,0,0,1,3.09-3.09,1.56,1.56,0,0,0,1.17-.47,6.41,6.41,0,0,1,8.71,0,.68.68,0,0,0,.83.2c.72-.33,1.44-.64,2.15-1,.29-.15.55-.31.87-.13a.8.8,0,0,1,.4.83c0,1.77,0,3.53,0,5.29a3.06,3.06,0,0,1-2.94,3.13.71.71,0,0,0-.47.25,6.45,6.45,0,0,1-10,.45c-.19-.2-.34-.26-.56-.11-.64.41-1.28.81-1.9,1.25-.28.2-.53.4-.89.25a.8.8,0,0,1-.46-.84C523,543.53,523,542.5,523,541.47Zm1.45,1.78a9.23,9.23,0,0,1,5.38-1.39c2.42,0,4.85,0,7.27,0a1.56,1.56,0,0,0,1.68-1.42c0-1.47,0-3,0-4.43-.07,0-.12,0-.15,0a9.81,9.81,0,0,1-4.41.81c-2.69,0-5.38,0-8.07,0a1.61,1.61,0,0,0-1.71,1.72v4.69Zm10.58.06H528.2A4.92,4.92,0,0,0,535,543.31Zm-.9-7.9c-1.55-.93-3.86-.9-4.93,0Z" transform="translate(-519.35 -518.9)"/><path class="cls-1" d="M539.48,551.2a3.59,3.59,0,1,1-3.61,3.54A3.6,3.6,0,0,1,539.48,551.2Zm0,5.74a2.15,2.15,0,1,0-2.14-2.18A2.15,2.15,0,0,0,539.45,556.94Z" transform="translate(-519.35 -518.9)"/></svg>