<svg id="Слой_1" data-name="Слой 1" xmlns="http://www.w3.org/2000/svg" viewBox="0 0 48 40.78"><defs><style>.cls-1{fill:#bfbfbf;}</style></defs><path class="cls-1" d="M28.5-4.08a1.84,1.84,0,0,0-.65.13,1.58,1.58,0,0,0-.53.35l0,0L17.11,6.61A1.7,1.7,0,0,0,19.51,9L26.8,1.72V35a1.7,1.7,0,0,0,3.4,0V1.72L37.49,9a1.7,1.7,0,0,0,2.41-2.4L29.7-3.58l0,0a1.74,1.74,0,0,0-1.17-.48Z" transform="translate(7.63 4.08)"/><path class="cls-1" d="M4.25,36.7a1.73,1.73,0,0,0,1.18-.49h0L15.64,26a1.7,1.7,0,0,0-2.4-2.4l-7.3,7.3V-2.38a1.7,1.7,0,0,0-1.69-1.7,1.7,1.7,0,0,0-1.7,1.7V30.9l-7.3-7.3a1.71,1.71,0,0,0-2.38,0,1.71,1.71,0,0,0,0,2.38L3,36.2h0a1.63,1.63,0,0,0,.53.35,1.66,1.66,0,0,0,.66.14Z" transform="translate(7.63 4.08)"/></svg>