<svg id="Слой_1" data-name="Слой 1" xmlns="http://www.w3.org/2000/svg" viewBox="0 0 130 130"><defs><style>.cls-1{fill:#f0f0f0;}.cls-2{fill:#1e1413;}</style></defs><rect class="cls-1" width="130" height="130" rx="21"/><path class="cls-2" d="M139.65,72h4.71a4.05,4.05,0,0,0,2.14-.94,3.49,3.49,0,0,0,.65-2.08s-.1-6.31,2.85-7.25,6.6,6.12,10.52,8.81c3,2.06,5.26,1.6,5.26,1.6L176.3,72s5.51-.34,2.89-4.67c-.22-.35-1.52-3.19-7.83-9.07-6.6-6.11-5.72-5.11,2.25-15.71,4.83-6.45,6.77-10.39,6.16-12.09s-4.14-1.17-4.14-1.17l-11.84.05a2.69,2.69,0,0,0-1.53.29,3.3,3.3,0,0,0-1,1.28,70.21,70.21,0,0,1-4.39,9.23c-5.27,9-7.39,9.43-8.23,8.87-2-1.29-1.51-5.21-1.51-8,0-8.67,1.31-12.31-2.58-13.23a20.32,20.32,0,0,0-5.52-.56c-4.23,0-7.81,0-9.83,1-1.35.67-2.39,2.13-1.75,2.23a5.27,5.27,0,0,1,3.48,1.75c1.23,1.66,1.17,5.37,1.17,5.37s.72,10.22-1.61,11.49c-1.62.86-3.81-.9-8.51-9.05a76.81,76.81,0,0,1-4.23-8.75,3.38,3.38,0,0,0-1-1.33,4.73,4.73,0,0,0-1.81-.73l-11.27.08s-1.68,0-2.31.77,0,2,0,2,8.81,20.6,18.79,31c9.17,9.52,19.56,8.9,19.56,8.9Zm0,0" transform="translate(-75.49 15.28)"/></svg>